<svg xmlns="http://www.w3.org/2000/svg" xmlns:xlink="http://www.w3.org/1999/xlink" width="28" height="31" viewBox="0 0 28 31"><defs><clipPath id="a"><rect width="28" height="31" transform="translate(0 0.476)" fill="#0f283d" stroke="#707070" stroke-width="1"/></clipPath></defs><g transform="translate(0 -0.476)" clip-path="url(#a)"><path d="M22.588,27.679a1.852,1.852,0,0,1-2.62,2.62l-.572-.572a7.529,7.529,0,0,1-3.976,1.115H7.71a7.426,7.426,0,0,1-5.451-2.259A7.433,7.433,0,0,1,0,23.13V7.71A7.426,7.426,0,0,1,2.259,2.259,7.433,7.433,0,0,1,7.71,0h7.71a7.426,7.426,0,0,1,5.451,2.259A7.433,7.433,0,0,1,23.13,7.71V23.13a7.529,7.529,0,0,1-1.115,3.976ZM19.275,23.13V7.71a3.716,3.716,0,0,0-1.129-2.726A3.71,3.71,0,0,0,15.42,3.855H7.71A3.716,3.716,0,0,0,4.984,4.984,3.71,3.71,0,0,0,3.855,7.71V23.13a3.716,3.716,0,0,0,1.129,2.726A3.71,3.71,0,0,0,7.71,26.985h7.71a3.514,3.514,0,0,0,1.054-.181l-4.4-4.4a1.852,1.852,0,0,1,2.62-2.62l4.4,4.4a3.52,3.52,0,0,0,.181-1.054Z" transform="translate(2.268 0.277)" fill="#0f283d"/></g></svg>