<svg xmlns="http://www.w3.org/2000/svg" xmlns:xlink="http://www.w3.org/1999/xlink" width="32" height="32" viewBox="0 0 32 32"><defs><clipPath id="a"><rect width="32" height="32" transform="translate(130 264.324)" fill="#ececec" stroke="#ececec" stroke-width="1"/></clipPath><filter id="b" x="-12" y="66" width="55" height="56" filterUnits="userSpaceOnUse"><feOffset dy="3" input="SourceAlpha"/><feGaussianBlur stdDeviation="3" result="c"/><feFlood flood-opacity="0.161"/><feComposite operator="in" in2="c"/><feComposite in="SourceGraphic"/></filter></defs><g transform="translate(-130 -264.324)" clip-path="url(#a)"><path d="M34.3,16.46,20.677,3.928a2.333,2.333,0,0,0-3.228.067L4.921,16.523l-.643.643V35.635H16.351V24.112h6.585V35.636H35.008V17.112ZM19.1,5.507c.02,0,.008,0,0,.013C19.087,5.512,19.077,5.507,19.1,5.507ZM32.813,33.44H25.13V24.112a2.195,2.195,0,0,0-2.195-2.195H16.351a2.195,2.195,0,0,0-2.195,2.195v9.329H6.473V18.075L19.1,5.547l0,0,13.714,12.53Z" transform="translate(126.006 260.688)" fill="#ececec"/><g transform="matrix(1, 0, 0, 1, 130, 264.32)" filter="url(#b)"><ellipse cx="18.5" cy="19" rx="18.5" ry="19" transform="translate(-3 72)" fill="#ececec"/></g></g></svg>