<svg xmlns="http://www.w3.org/2000/svg" xmlns:xlink="http://www.w3.org/1999/xlink" width="26" height="26" viewBox="0 0 26 26"><defs><clipPath id="a"><rect width="26" height="26" transform="translate(119 676)" fill="#fff" stroke="#0f283d" stroke-width="1"/></clipPath></defs><g transform="translate(-119 -676)" clip-path="url(#a)"><path d="M25.524,12.433V10.078a5.587,5.587,0,1,0-11.174,0v5.587a.8.8,0,0,0,1.6,0V14.029h6.385v-1.6H15.947V10.078a3.991,3.991,0,0,1,7.981,0v5.547a.8.8,0,1,0,1.6,0v-1.6h3.991V28.4H10.36V14.029h2.394v-1.6H8.764V28.467a1.524,1.524,0,0,0,1.524,1.524h19.3a1.524,1.524,0,0,0,1.524-1.524V12.433Z" transform="translate(111.995 671.509)"/></g></svg>