<svg xmlns="http://www.w3.org/2000/svg" width="34" height="28" viewBox="0 0 34 28"><path d="M24.279,28h0c-1.646,0-2.536-.846-2.72-2.586H19.092a6.67,6.67,0,0,1-4.572-1.808,6.522,6.522,0,0,1-2.078-4.36,7.205,7.205,0,0,1-2.253.319c.907-.786,1.812-1.719,1.073-2.871H7.508A7.576,7.576,0,0,1,0,9.251V7.337A7.19,7.19,0,0,1,2.226,2.153,7.544,7.544,0,0,1,7.508,0h9.117a7.544,7.544,0,0,1,5.323,2.153,7.214,7.214,0,0,1,2.185,5.183V9.251a5.162,5.162,0,0,1-.107,1.275H27.35a6.629,6.629,0,0,1,4.693,1.94A6.514,6.514,0,0,1,34,17.119v1.7a6.515,6.515,0,0,1-1.958,4.652,6.629,6.629,0,0,1-4.693,1.941H23.918c-.609,1,.1,1.82.965,2.551A5.569,5.569,0,0,1,24.279,28ZM7.508,1.595a5.828,5.828,0,0,0-5.9,5.742V9.251a5.952,5.952,0,0,0,5.9,5.848h9.117a5.88,5.88,0,0,0,5.9-5.848V7.337a5.76,5.76,0,0,0-5.9-5.742Zm9.868,8.081a1.407,1.407,0,0,1-1.394-1.382,1.324,1.324,0,0,1,1.394-1.275,1.239,1.239,0,0,1,1.287,1.275A1.323,1.323,0,0,1,17.375,9.676Zm-5.255,0a1.407,1.407,0,0,1-1.4-1.382,1.325,1.325,0,0,1,1.4-1.275,1.239,1.239,0,0,1,1.287,1.275A1.323,1.323,0,0,1,12.12,9.676Zm-5.256,0A1.407,1.407,0,0,1,5.47,8.294,1.324,1.324,0,0,1,6.864,7.018,1.239,1.239,0,0,1,8.151,8.294,1.323,1.323,0,0,1,6.864,9.676Z" fill="#fc0"/></svg>