<svg xmlns="http://www.w3.org/2000/svg" width="28" height="28" viewBox="0 0 28 28"><path d="M0,5.84,1.657,9H10V4.18L5.838,0Z" transform="translate(18 10)" fill="#fc0"/><path d="M4.657,0,0,4.3V6H8Z" transform="translate(11 13)" fill="#fc0"/><path d="M0,9V0H17V6L12.952,1.956,6.668,8.2,4.682,4.435,0,9ZM7.443.842A1.945,1.945,0,0,0,5.477,2.76a1.967,1.967,0,0,0,3.933,0A1.945,1.945,0,0,0,7.443.842Z" transform="translate(11 6)" fill="#fc0"/><path d="M4.934,4.872H18V1.37A1.375,1.375,0,0,0,16.623,0H0V28H16.623A1.375,1.375,0,0,0,18,26.63V20.425H4.934V4.872Z" transform="translate(5)" fill="#fc0"/><path d="M0,1.37V26.63A1.34,1.34,0,0,0,1.305,28H3V0H1.305A1.34,1.34,0,0,0,0,1.37Z" fill="#fc0"/></svg>