<svg xmlns="http://www.w3.org/2000/svg" xmlns:xlink="http://www.w3.org/1999/xlink" width="52" height="47" viewBox="0 0 52 47"><defs><clipPath id="a"><rect width="52" height="47" transform="translate(872 263)" fill="#fc0" stroke="#707070" stroke-width="1"/></clipPath></defs><g transform="translate(-872 -263)" clip-path="url(#a)"><path d="M51.476,13.429,45.3,8.671a5.192,5.192,0,0,0-1.355-.617A5.291,5.291,0,0,0,42.473,7.8H24.7l2.083,13H42.473a5.875,5.875,0,0,0,2.827-.868l6.175-4.764A1.063,1.063,0,0,0,52,14.3a1.075,1.075,0,0,0-.523-.871ZM22.1,2.6H19.5a1.3,1.3,0,0,0-1.3,1.3V13H9.526a5.2,5.2,0,0,0-1.475.257,5.011,5.011,0,0,0-1.355.614L.523,18.628a.987.987,0,0,0,0,1.742L6.7,25.134a5.171,5.171,0,0,0,1.355.611A5.238,5.238,0,0,0,9.527,26H18.2V48.1a1.3,1.3,0,0,0,1.3,1.3h2.6a1.3,1.3,0,0,0,1.3-1.3V3.9a1.3,1.3,0,0,0-1.3-1.3Z" transform="translate(872 260.501)" fill="#fc0"/></g></svg>