<svg xmlns="http://www.w3.org/2000/svg" xmlns:xlink="http://www.w3.org/1999/xlink" width="42" height="39" viewBox="0 0 42 39"><defs><clipPath id="a"><rect width="42" height="39" transform="translate(562.735 554)" fill="#fc0" stroke="#707070" stroke-width="1"/></clipPath></defs><g transform="translate(-562.735 -554)" clip-path="url(#a)"><path d="M36.717,27.007a2.109,2.109,0,0,1,1.466.607,1.98,1.98,0,0,1,.657,1.517v7.586a2.258,2.258,0,0,1-2.123,2.124,36.1,36.1,0,0,1-18.46-4.906A36.235,36.235,0,0,1,4.906,20.584,36.1,36.1,0,0,1,0,2.124,2.03,2.03,0,0,1,.657.658,2.035,2.035,0,0,1,2.124,0H9.71a1.978,1.978,0,0,1,1.517.657,2.116,2.116,0,0,1,.607,1.466,24.15,24.15,0,0,0,1.214,7.687,2.069,2.069,0,0,1-.506,2.226L7.789,16.79A31.732,31.732,0,0,0,22.051,31.053L26.805,26.3a2.069,2.069,0,0,1,2.226-.506,24.15,24.15,0,0,0,7.687,1.214Zm-2.226-7.586a14.532,14.532,0,0,0-4.4-10.672,14.53,14.53,0,0,0-10.671-4.4V0A18.729,18.729,0,0,1,33.177,5.664a18.729,18.729,0,0,1,5.664,13.756H34.493Zm-8.6,0a6.389,6.389,0,0,0-6.473-6.474V8.6a10.417,10.417,0,0,1,7.637,3.186,10.417,10.417,0,0,1,3.186,7.637H25.895Z" transform="translate(564.694 554)" fill="#fc0"/></g></svg>