<svg xmlns="http://www.w3.org/2000/svg" width="16" height="16" viewBox="0 0 16 16"><g transform="translate(0 0)"><path d="M8,16a1.43,1.43,0,0,1-.709-.19C5.61,14.846,2.34,12.907.54,11.837a1.067,1.067,0,0,1,0-1.856l.89-.524L.739,9.046l-.2-.119a1.067,1.067,0,0,1,0-1.856l.89-.524-.8-.472-.1-.057a1.067,1.067,0,0,1,0-1.856C2.205,3.176,7.237.221,7.287.192A1.481,1.481,0,0,1,8.006,0a1.414,1.414,0,0,1,.7.189C10.572,1.257,14.348,3.5,15.46,4.162a1.066,1.066,0,0,1,0,1.855l-.892.53.891.524a1.067,1.067,0,0,1,0,1.856l-.316.187-.576.342.891.525a1.066,1.066,0,0,1,0,1.855c-.785.467-4.8,2.855-6.751,3.974A1.422,1.422,0,0,1,8,16ZM2.146,9.881l-1.235.725a.355.355,0,0,0-.184.3.362.362,0,0,0,.184.3c1.218.723,4.914,2.919,6.741,3.967a.694.694,0,0,0,.7,0c1.677-.962,4.943-2.9,6.74-3.967a.34.34,0,0,0,0-.6l-1.234-.725c-2.409,1.427-4.14,2.443-5.145,3.02a1.419,1.419,0,0,1-1.418,0C6.284,12.324,4.6,11.336,2.146,9.881Zm0-2.91L.911,7.7A.355.355,0,0,0,.727,8a.362.362,0,0,0,.184.3c1.8,1.069,5.065,3.007,6.741,3.967a.694.694,0,0,0,.7,0c1.678-.962,4.943-2.9,6.74-3.967a.362.362,0,0,0,.184-.3.353.353,0,0,0-.184-.3l-1.234-.726C11.471,8.384,9.74,9.4,8.709,9.992a1.419,1.419,0,0,1-1.418,0C5.893,9.19,3.467,7.755,2.146,6.971ZM8,.727a.717.717,0,0,0-.354.1l-.608.358C5.6,2.026,2.235,4.005.911,4.789a.355.355,0,0,0-.184.3.362.362,0,0,0,.184.3C2.71,6.463,5.977,8.4,7.653,9.361a.694.694,0,0,0,.7,0c1.675-.959,4.942-2.9,6.74-3.966a.341.341,0,0,0,0-.606C14.306,4.322,10.3,1.943,8.347.821A.691.691,0,0,0,8,.727Z" fill="#fff"/></g></svg>