<svg xmlns="http://www.w3.org/2000/svg" width="12" height="16" viewBox="0 0 12 16"><g transform="translate(0)"><path d="M1.5,3A1.5,1.5,0,1,1,3,1.5,1.5,1.5,0,0,1,1.5,3ZM1.5.477A1.023,1.023,0,1,0,2.523,1.5,1.024,1.024,0,0,0,1.5.477Z" transform="translate(4 6)" fill="#fff"/><path d="M5,3H0A3.4,3.4,0,0,1,.748.876,2.275,2.275,0,0,1,2.5,0,2.276,2.276,0,0,1,4.251.877,3.406,3.406,0,0,1,5,3ZM2.5.554A2.144,2.144,0,0,0,.564,2.446H4.436A2.145,2.145,0,0,0,2.5.554Z" transform="translate(3 9)" fill="#fff"/><path d="M1.969,16A1.9,1.9,0,0,1,.7,15.493a2.674,2.674,0,0,1-.7-2.02V1.906A1.885,1.885,0,0,1,1.859,0H11.994V.5H1.859A1.39,1.39,0,0,0,.488,1.906a1.391,1.391,0,0,0,1.37,1.408H12V16H2.032A.432.432,0,0,1,1.969,16ZM.487,3.192V13.474a2.2,2.2,0,0,0,.543,1.652,1.408,1.408,0,0,0,.954.373h.029l9.5,0V3.814H1.859A1.843,1.843,0,0,1,.487,3.192Z" fill="#fff"/><path d="M.623,3C.609,2.99-.741,1.9.578,0L1,.214C-.108,1.809.912,2.657.956,2.692Z" transform="translate(10)" fill="#fff"/></g></svg>