<svg xmlns="http://www.w3.org/2000/svg" width="20" height="16" viewBox="0 0 20 16"><g transform="translate(0 0)"><path d="M10,16a.436.436,0,0,1-.17-.034,23.668,23.668,0,0,0-9.4-2.128A.434.434,0,0,1,0,13.406V2.163A.432.432,0,0,1,.394,1.73H.435c.472,0,.969.02,1.522.061V.433A.432.432,0,0,1,2.351,0h.04A16.528,16.528,0,0,1,10,2.109,16.54,16.54,0,0,1,17.608,0a.434.434,0,0,1,.435.433V1.791c.557-.042,1.055-.061,1.522-.061A.434.434,0,0,1,20,2.163V13.406a.434.434,0,0,1-.435.432,23.668,23.668,0,0,0-9.4,2.128A.436.436,0,0,1,10,16ZM19.13,2.615c-.331.007-.716.017-1.087.04v9.236a.434.434,0,0,1-.435.432,11.072,11.072,0,0,0-4.306.959,8.079,8.079,0,0,0-2.174,1.379,23.858,23.858,0,0,1,8-1.662Zm-18.261,0V13a23.831,23.831,0,0,1,8,1.662A8.088,8.088,0,0,0,6.7,13.283a11.081,11.081,0,0,0-4.307-.959.434.434,0,0,1-.435-.432V2.656C1.587,2.633,1.2,2.623.869,2.615ZM17.174.9a16.309,16.309,0,0,0-6.739,1.959V14.142a8.446,8.446,0,0,1,2.514-1.649,12.091,12.091,0,0,1,4.226-1.007ZM2.826.9V11.486a12.084,12.084,0,0,1,4.226,1.007,8.445,8.445,0,0,1,2.514,1.649V2.858A16.3,16.3,0,0,0,2.826.9Z" fill="#fff"/></g></svg>