<svg xmlns="http://www.w3.org/2000/svg" width="16" height="16" viewBox="0 0 16 16"><g transform="translate(0)"><path d="M13.777,16H2.222A2.225,2.225,0,0,1,0,13.777V3.556A2.225,2.225,0,0,1,2.222,1.334H3.555V0h.889V1.334h7.111V0h.888V1.334h1.334A2.226,2.226,0,0,1,16,3.555V13.777A2.226,2.226,0,0,1,13.777,16ZM.889,5.778v8a1.334,1.334,0,0,0,1.334,1.332H13.777a1.334,1.334,0,0,0,1.333-1.332v-8ZM2.223,2.221A1.335,1.335,0,0,0,.889,3.555V4.889H15.11V3.555a1.334,1.334,0,0,0-1.333-1.333H12.444v.889h-.889V2.222H4.444V3.11H3.556V2.221Z" fill="gray"/></g></svg>