<svg xmlns="http://www.w3.org/2000/svg" width="11.53" height="15.76" viewBox="0 0 11.53 15.76"><g transform="translate(0 0)"><path d="M7.24,10.465a.6.6,0,0,1-.5-.268.507.507,0,0,1,0-.553.6.6,0,0,1,.5-.268H8.881A1.163,1.163,0,0,0,10.1,8.247V6.739a.521.521,0,0,1,.151-.372.608.608,0,0,1,.426-.18h.007a.613.613,0,0,1,.416.159.523.523,0,0,1,.172.392V8.247a2.31,2.31,0,0,1-2.389,2.218H7.24Zm-3.209,0H2.39A2.311,2.311,0,0,1,0,8.247V6.739a.521.521,0,0,1,.151-.372.608.608,0,0,1,.426-.18H.584A.613.613,0,0,1,1,6.347a.527.527,0,0,1,.173.392V8.247A1.163,1.163,0,0,0,2.39,9.377H4.031a.6.6,0,0,1,.5.268.511.511,0,0,1,0,.553A.6.6,0,0,1,4.031,10.465ZM10.684,4.27a.567.567,0,0,1-.586-.544V2.219a1.163,1.163,0,0,0-1.217-1.13H7.242A.6.6,0,0,1,6.737.821a.51.51,0,0,1,0-.553A.6.6,0,0,1,7.242,0H8.881A2.311,2.311,0,0,1,11.27,2.219V3.726A.567.567,0,0,1,10.684,4.27Zm-10.1,0A.567.567,0,0,1,0,3.726V2.219A2.311,2.311,0,0,1,2.39,0H4.028a.6.6,0,0,1,.505.268.51.51,0,0,1,0,.553.6.6,0,0,1-.5.267H2.39a1.163,1.163,0,0,0-1.217,1.13V3.726A.567.567,0,0,1,.586,4.27Z" fill="#fff"/><path d="M.577,0A.565.565,0,0,0,0,.552V4.686a.537.537,0,0,0,.288.485.625.625,0,0,0,.6,0,.537.537,0,0,0,.288-.485V.552A.525.525,0,0,0,1,.159.61.61,0,0,0,.577,0Z" transform="translate(6.704 2.614)" fill="#fff"/><path d="M.577,0A.565.565,0,0,0,0,.552V4.686a.566.566,0,0,0,.586.544.566.566,0,0,0,.586-.544V.552A.525.525,0,0,0,1,.159.61.61,0,0,0,.577,0Z" transform="translate(3.394 2.614)" fill="#fff"/><path d="M8.709,3.37H7.983V0h.623l1.611,2.136V0h.731V3.368H10.32L8.709,1.238V3.369Zm-2.517,0H4.69V0H6.106a1.415,1.415,0,0,1,.431.064A1.078,1.078,0,0,1,6.88.245.817.817,0,0,1,7.1.532a.871.871,0,0,1,.08.38.774.774,0,0,1-.1.4.832.832,0,0,1-.235.266.94.94,0,0,1,.349.323.877.877,0,0,1,.13.479A1,1,0,0,1,7.24,2.8.877.877,0,0,1,7,3.105a1.084,1.084,0,0,1-.358.194A1.445,1.445,0,0,1,6.192,3.369Zm-.843-1.39v.941h.78A.594.594,0,0,0,6.514,2.8a.415.415,0,0,0,.152-.343A.431.431,0,0,0,6.517,2.1.654.654,0,0,0,6.1,1.979ZM5.38.5v.848H6.15a.518.518,0,0,0,.358-.115A.409.409,0,0,0,6.634.912.36.36,0,0,0,6.489.6.6.6,0,0,0,6.118.5ZM2.7,3.369a2.027,2.027,0,0,1-.355-.033,1.8,1.8,0,0,1-.351-.1,1.764,1.764,0,0,1-.322-.171A1.433,1.433,0,0,1,1.4,2.827l.47-.421a1.168,1.168,0,0,0,.4.279,1.12,1.12,0,0,0,.421.089.909.909,0,0,0,.262-.033.548.548,0,0,0,.182-.089.372.372,0,0,0,.1-.124.32.32,0,0,0,.033-.144.316.316,0,0,0-.116-.256,1.093,1.093,0,0,0-.387-.17L2.39,1.85A1.634,1.634,0,0,1,1.7,1.5.767.767,0,0,1,1.464.919.749.749,0,0,1,1.546.577.907.907,0,0,1,1.784.284,1.21,1.21,0,0,1,2.165.077,1.592,1.592,0,0,1,2.68,0,1.725,1.725,0,0,1,3.3.113a1.579,1.579,0,0,1,.542.357l-.455.4a.994.994,0,0,0-.31-.212.937.937,0,0,0-.383-.08A.783.783,0,0,0,2.467.61a.43.43,0,0,0-.15.077A.281.281,0,0,0,2.235.8.324.324,0,0,0,2.21.919a.28.28,0,0,0,.095.212.661.661,0,0,0,.3.138l.421.112a1.651,1.651,0,0,1,.743.382.851.851,0,0,1,.172.987.938.938,0,0,1-.254.317,1.266,1.266,0,0,1-.417.22A1.84,1.84,0,0,1,2.7,3.369Zm-1.882,0H0V0H.817V3.368Z" transform="translate(0.582 12.39)" fill="#fff"/></g></svg>