<svg xmlns="http://www.w3.org/2000/svg" width="15.158" height="16" viewBox="0 0 15.158 16"><path d="M0,.9H.842V11.729H0v.9H2.526v-.9H1.684V.9h.842V0H0Z" transform="translate(0 3.368)" fill="#fff"/><path d="M10.883.842H.907V0H0V2.526H.907V1.684h9.976v.842h.907V0h-.907Z" transform="translate(3.368)" fill="#fff"/><path d="M11.789,12.632H2.358L0,10.376V0H9.432l2.357,2.255V12.63ZM2,10.376l.943.9h7.432V2.815l-.943-.9v8.464ZM1.415,1.354v8.12H8.489V1.354Z" transform="translate(3.368 3.368)" fill="#fff"/><rect width="5.053" height="0.842" transform="translate(5.895 7.579)" fill="#fff"/><rect width="2.526" height="0.842" transform="translate(7.579 9.263)" fill="#fff"/></svg>