<svg xmlns="http://www.w3.org/2000/svg" width="22.5" height="18.274" viewBox="0 0 22.5 18.274"><path d="M7.081,18.274A13.03,13.03,0,0,0,20.2,5.154c0-.2,0-.4-.014-.6A9.912,9.912,0,0,0,22.5,2.17a9.245,9.245,0,0,1-2.655.714A4.6,4.6,0,0,0,21.872.343a9.078,9.078,0,0,1-2.927,1.114,4.616,4.616,0,0,0-7.981,3.155,5.205,5.205,0,0,0,.114,1.056A13.107,13.107,0,0,1,1.57.842,4.618,4.618,0,0,0,3,7.01,4.644,4.644,0,0,1,.914,6.424v.057a4.612,4.612,0,0,0,3.7,4.526,4.876,4.876,0,0,1-1.213.157,5.812,5.812,0,0,1-.871-.071,4.62,4.62,0,0,0,4.312,3.2,9.235,9.235,0,0,1-5.725,1.97A9.544,9.544,0,0,1,0,16.2,13.031,13.031,0,0,0,7.081,18.274Z" fill="#9ba5ca"/></svg>