<?xml version="1.0" encoding="UTF-8"?>
<svg width="85px" height="51px" viewBox="0 0 85 51" version="1.1" xmlns="http://www.w3.org/2000/svg" xmlns:xlink="http://www.w3.org/1999/xlink">
    <title>ThinkerMath</title>
    <g id="Welcome" stroke="none" stroke-width="1" fill="none" fill-rule="evenodd">
        <g id="DESKTOP-HD---DARK" transform="translate(-987.000000, -2279.000000)" fill="#E0E9F2" fill-rule="nonzero">
            <path d="M996.4605,2297 L996.4605,2283.43 L1001.5665,2283.43 L1001.5665,2280.095 L987.7665,2280.095 L987.7665,2283.43 L992.8725,2283.43 L992.8725,2297 L996.4605,2297 Z M1006.38336,2297 L1006.38336,2289.962 C1006.58269,2289.51733 1006.90086,2289.15317 1007.33786,2288.8695 C1007.77486,2288.58583 1008.25402,2288.444 1008.77536,2288.444 C1009.48069,2288.444 1010.00586,2288.65867 1010.35086,2289.088 C1010.69586,2289.51733 1010.86836,2290.077 1010.86836,2290.767 L1010.86836,2290.767 L1010.86836,2297 L1014.01936,2297 L1014.01936,2290.583 C1014.01936,2289.801 1013.90052,2289.09183 1013.66286,2288.4555 C1013.42519,2287.81917 1013.09552,2287.27867 1012.67386,2286.834 C1012.25219,2286.38933 1011.75002,2286.04817 1011.16736,2285.8105 C1010.58469,2285.57283 1009.94836,2285.454 1009.25836,2285.454 C1008.72169,2285.454 1008.20036,2285.54217 1007.69436,2285.7185 C1007.18836,2285.89483 1006.75136,2286.15933 1006.38336,2286.512 L1006.38336,2286.512 L1006.38336,2279.635 L1003.16336,2279.635 L1003.16336,2297 L1006.38336,2297 Z M1018.26121,2283.683 C1018.78255,2283.683 1019.22721,2283.499 1019.59521,2283.131 C1019.96321,2282.763 1020.14721,2282.31833 1020.14721,2281.797 C1020.14721,2281.27567 1019.96321,2280.83483 1019.59521,2280.4745 C1019.22721,2280.11417 1018.78255,2279.934 1018.26121,2279.934 C1017.75521,2279.934 1017.31821,2280.11417 1016.95021,2280.4745 C1016.58221,2280.83483 1016.39821,2281.27567 1016.39821,2281.797 C1016.39821,2282.31833 1016.58221,2282.763 1016.95021,2283.131 C1017.31821,2283.499 1017.75521,2283.683 1018.26121,2283.683 Z M1019.87121,2297 L1019.87121,2285.661 L1016.65121,2285.661 L1016.65121,2297 L1019.87121,2297 Z M1025.95307,2297 L1025.95307,2289.985 C1026.1524,2289.54033 1026.4629,2289.17233 1026.88457,2288.881 C1027.30624,2288.58967 1027.77774,2288.444 1028.29907,2288.444 C1029.01974,2288.444 1029.5564,2288.6625 1029.90907,2289.0995 C1030.26174,2289.5365 1030.43807,2290.1 1030.43807,2290.79 L1030.43807,2290.79 L1030.43807,2297 L1033.58907,2297 L1033.58907,2290.583 C1033.58907,2289.77033 1033.47024,2289.04583 1033.23257,2288.4095 C1032.9949,2287.77317 1032.6614,2287.2365 1032.23207,2286.7995 C1031.80274,2286.3625 1031.30057,2286.029 1030.72557,2285.799 C1030.15057,2285.569 1029.51807,2285.454 1028.82807,2285.454 C1028.1074,2285.454 1027.44424,2285.60733 1026.83857,2285.914 C1026.2329,2286.22067 1025.74607,2286.61167 1025.37807,2287.087 L1025.37807,2287.087 L1024.45807,2285.615 L1022.73307,2285.615 L1022.73307,2297 L1025.95307,2297 Z M1039.44093,2297 L1039.44093,2292.699 L1040.24593,2292.699 L1043.92593,2297 L1047.81293,2297 L1042.93693,2291.204 L1047.37593,2285.661 L1043.60393,2285.661 L1040.13093,2289.939 L1039.44093,2289.939 L1039.44093,2279.635 L1036.22093,2279.635 L1036.22093,2297 L1039.44093,2297 Z M1054.97579,2297.23 C1055.98779,2297.23 1056.91545,2297.04983 1057.75879,2296.6895 C1058.60212,2296.32917 1059.33812,2295.781 1059.96679,2295.045 L1059.96679,2295.045 L1057.75879,2293.435 C1057.40612,2293.849 1056.99595,2294.15567 1056.52829,2294.355 C1056.06062,2294.55433 1055.56612,2294.654 1055.04479,2294.654 C1054.24745,2294.654 1053.57662,2294.43167 1053.03229,2293.987 C1052.48795,2293.54233 1052.18512,2292.952 1052.12379,2292.216 L1052.12379,2292.216 L1060.24279,2292.216 C1060.25812,2292.10867 1060.26962,2291.97067 1060.27729,2291.802 C1060.28495,2291.63333 1060.28879,2291.42633 1060.28879,2291.181 C1060.28879,2290.399 1060.15079,2289.663 1059.87479,2288.973 C1059.59879,2288.283 1059.21162,2287.67733 1058.71329,2287.156 C1058.21495,2286.63467 1057.61695,2286.22067 1056.91929,2285.914 C1056.22162,2285.60733 1055.45112,2285.454 1054.60779,2285.454 C1053.73379,2285.454 1052.94029,2285.60733 1052.22729,2285.914 C1051.51429,2286.22067 1050.91245,2286.6385 1050.42179,2287.1675 C1049.93112,2287.6965 1049.55162,2288.32133 1049.28329,2289.042 C1049.01495,2289.76267 1048.88079,2290.52933 1048.88079,2291.342 C1048.88079,2292.17 1049.02262,2292.94433 1049.30629,2293.665 C1049.58995,2294.38567 1049.99629,2295.0105 1050.52529,2295.5395 C1051.05429,2296.0685 1051.69445,2296.4825 1052.44579,2296.7815 C1053.19712,2297.0805 1054.04045,2297.23 1054.97579,2297.23 Z M1057.04579,2290.261 L1052.14679,2290.261 C1052.22345,2289.60167 1052.47645,2289.04583 1052.90579,2288.5935 C1053.33512,2288.14117 1053.91012,2287.915 1054.63079,2287.915 C1054.98345,2287.915 1055.30545,2287.97633 1055.59679,2288.099 C1055.88812,2288.22167 1056.13729,2288.39033 1056.34429,2288.605 C1056.55129,2288.81967 1056.71612,2289.06883 1056.83879,2289.3525 C1056.96145,2289.63617 1057.03045,2289.939 1057.04579,2290.261 L1057.04579,2290.261 Z M1066.02564,2297 L1066.02564,2290.491 C1066.13298,2289.87767 1066.41281,2289.37933 1066.86514,2288.996 C1067.31748,2288.61267 1067.84264,2288.421 1068.44064,2288.421 C1068.79331,2288.421 1069.11148,2288.47467 1069.39514,2288.582 C1069.67881,2288.68933 1069.95098,2288.84267 1070.21164,2289.042 L1070.21164,2289.042 L1071.68364,2286.558 C1071.23898,2286.20533 1070.75598,2285.93317 1070.23464,2285.7415 C1069.71331,2285.54983 1069.17664,2285.454 1068.62464,2285.454 C1067.91931,2285.454 1067.29448,2285.59967 1066.75014,2285.891 C1066.20581,2286.18233 1065.75731,2286.59633 1065.40464,2287.133 L1065.40464,2287.133 L1064.53064,2285.615 L1062.80564,2285.615 L1062.80564,2297 L1066.02564,2297 Z M1005.54879,2329 L1005.54879,2319.018 L1010.56279,2326.953 L1012.03479,2326.953 L1017.02579,2319.064 L1017.02579,2329 L1020.61379,2329 L1020.61379,2312.095 L1017.60079,2312.095 L1011.29879,2322.146 L1004.99679,2312.095 L1001.98379,2312.095 L1001.98379,2329 L1005.54879,2329 Z M1028.58164,2329.23 C1029.27164,2329.23 1029.94248,2329.08433 1030.59414,2328.793 C1031.24581,2328.50167 1031.78631,2328.08767 1032.21564,2327.551 L1032.21564,2327.551 L1032.37664,2329 L1035.06764,2329 L1035.06764,2317.615 L1033.34264,2317.615 L1032.56064,2319.018 C1032.06998,2318.512 1031.49498,2318.12483 1030.83564,2317.8565 C1030.17631,2317.58817 1029.51698,2317.454 1028.85764,2317.454 C1028.06031,2317.454 1027.32048,2317.60733 1026.63814,2317.914 C1025.95581,2318.22067 1025.36164,2318.6385 1024.85564,2319.1675 C1024.34964,2319.6965 1023.95481,2320.3175 1023.67114,2321.0305 C1023.38748,2321.7435 1023.24564,2322.514 1023.24564,2323.342 C1023.24564,2324.18533 1023.38748,2324.96733 1023.67114,2325.688 C1023.95481,2326.40867 1024.33814,2327.02967 1024.82114,2327.551 C1025.30414,2328.07233 1025.87148,2328.4825 1026.52314,2328.7815 C1027.17481,2329.0805 1027.86098,2329.23 1028.58164,2329.23 Z M1029.15664,2326.286 C1028.75798,2326.286 1028.38998,2326.20933 1028.05264,2326.056 C1027.71531,2325.90267 1027.42398,2325.69567 1027.17864,2325.435 C1026.93331,2325.17433 1026.74548,2324.86383 1026.61514,2324.5035 C1026.48481,2324.14317 1026.41964,2323.756 1026.41964,2323.342 C1026.41964,2322.928 1026.48864,2322.537 1026.62664,2322.169 C1026.76464,2321.801 1026.95248,2321.48667 1027.19014,2321.226 C1027.42781,2320.96533 1027.71531,2320.75833 1028.05264,2320.605 C1028.38998,2320.45167 1028.75798,2320.375 1029.15664,2320.375 C1029.55531,2320.375 1029.92331,2320.45167 1030.26064,2320.605 C1030.59798,2320.75833 1030.88931,2320.96533 1031.13464,2321.226 C1031.37998,2321.48667 1031.57164,2321.7895 1031.70964,2322.1345 C1031.84764,2322.4795 1031.91664,2322.85133 1031.91664,2323.25 C1031.91664,2324.13933 1031.65981,2324.86767 1031.14614,2325.435 C1030.63248,2326.00233 1029.96931,2326.286 1029.15664,2326.286 Z M1042.4375,2329.138 C1042.79017,2329.138 1043.15817,2329.12267 1043.5415,2329.092 C1043.92483,2329.06133 1044.33117,2329.00767 1044.7605,2328.931 L1044.7605,2328.931 L1044.6455,2326.24 L1043.0585,2326.24 C1042.6905,2326.24 1042.3915,2326.11733 1042.1615,2325.872 C1041.9315,2325.62667 1041.8165,2325.25867 1041.8165,2324.768 L1041.8165,2324.768 L1041.8165,2320.329 L1044.6685,2320.329 L1044.6685,2317.661 L1041.8165,2317.661 L1041.8165,2314.418 L1039.1945,2314.349 L1038.7575,2317.661 L1036.7795,2317.661 L1036.7795,2320.329 L1038.6195,2320.329 L1038.6195,2325.159 C1038.6195,2325.711 1038.7,2326.23233 1038.861,2326.723 C1039.022,2327.21367 1039.25967,2327.63533 1039.574,2327.988 C1039.88833,2328.34067 1040.28317,2328.6205 1040.7585,2328.8275 C1041.23383,2329.0345 1041.7935,2329.138 1042.4375,2329.138 Z M1050.26736,2329 L1050.26736,2321.962 C1050.46669,2321.51733 1050.78486,2321.15317 1051.22186,2320.8695 C1051.65886,2320.58583 1052.13802,2320.444 1052.65936,2320.444 C1053.36469,2320.444 1053.88986,2320.65867 1054.23486,2321.088 C1054.57986,2321.51733 1054.75236,2322.077 1054.75236,2322.767 L1054.75236,2322.767 L1054.75236,2329 L1057.90336,2329 L1057.90336,2322.583 C1057.90336,2321.801 1057.78452,2321.09183 1057.54686,2320.4555 C1057.30919,2319.81917 1056.97952,2319.27867 1056.55786,2318.834 C1056.13619,2318.38933 1055.63402,2318.04817 1055.05136,2317.8105 C1054.46869,2317.57283 1053.83236,2317.454 1053.14236,2317.454 C1052.60569,2317.454 1052.08436,2317.54217 1051.57836,2317.7185 C1051.07236,2317.89483 1050.63536,2318.15933 1050.26736,2318.512 L1050.26736,2318.512 L1050.26736,2311.635 L1047.04736,2311.635 L1047.04736,2329 L1050.26736,2329 Z" id="ThinkerMath"></path>
        </g>
    </g>
</svg>