<?xml version="1.0" encoding="UTF-8"?>
<svg width="140px" height="14px" viewBox="0 0 140 14" version="1.1" xmlns="http://www.w3.org/2000/svg" xmlns:xlink="http://www.w3.org/1999/xlink">
    <title>THINKERMATH</title>
    <g id="Welcome" stroke="none" stroke-width="1" fill="none" fill-rule="evenodd">
        <g id="DESKTOP-HD---Alt-/-1" transform="translate(-200.000000, -47.000000)" fill="#FFFFFF" fill-rule="nonzero">
            <path d="M207.056,61 L207.056,50.38 L211.052,50.38 L211.052,47.77 L200.252,47.77 L200.252,50.38 L204.248,50.38 L204.248,61 L207.056,61 Z M215.606,61 L215.606,55.474 L220.934,55.474 L220.934,61 L223.742,61 L223.742,47.77 L220.934,47.77 L220.934,52.9 L215.606,52.9 L215.606,47.77 L212.816,47.77 L212.816,61 L215.606,61 Z M229.538,61 L229.538,47.77 L226.748,47.77 L226.748,61 L229.538,61 Z M235.352,61 L235.352,52.63 L241.544,61 L243.956,61 L243.956,47.77 L241.148,47.77 L241.148,56.158 L234.956,47.77 L232.562,47.77 L232.562,61 L235.352,61 Z M249.77,61 L249.77,55.564 L250.634,55.564 L254.828,61 L258.32,61 L252.992,54.178 L257.798,47.77 L254.432,47.77 L250.436,53.134 L249.77,53.134 L249.77,47.77 L246.98,47.77 L246.98,61 L249.77,61 Z M269.66,61 L269.66,58.516 L263.054,58.516 L263.054,55.276 L268.562,55.276 L268.562,53.062 L263.054,53.062 L263.054,50.254 L269.408,50.254 L269.408,47.77 L260.264,47.77 L260.264,61 L269.66,61 Z M274.934,61 L274.934,56.122 L276.5,56.122 L279.578,61 L282.728,61 L279.29,55.726 C280.166,55.45 280.853,54.979 281.351,54.313 C281.849,53.647 282.098,52.852 282.098,51.928 C282.098,51.292 281.984,50.719 281.756,50.209 C281.528,49.699 281.204,49.264 280.784,48.904 C280.364,48.544 279.854,48.265 279.254,48.067 C278.654,47.869 277.982,47.77 277.238,47.77 L277.238,47.77 L272.144,47.77 L272.144,61 L274.934,61 Z M277.13,53.818 L274.934,53.818 L274.934,50.146 L277.04,50.146 C277.748,50.146 278.291,50.305 278.669,50.623 C279.047,50.941 279.236,51.394 279.236,51.982 C279.236,52.522 279.059,52.96 278.705,53.296 C278.351,53.632 277.826,53.806 277.13,53.818 L277.13,53.818 Z M287.732,61 L287.732,53.188 L291.656,59.398 L292.808,59.398 L296.714,53.224 L296.714,61 L299.522,61 L299.522,47.77 L297.164,47.77 L292.232,55.636 L287.3,47.77 L284.942,47.77 L284.942,61 L287.732,61 Z M304.67,61 L305.84,58.048 L310.61,58.048 L311.744,61 L314.804,61 L309.494,47.77 L306.956,47.77 L301.646,61 L304.67,61 Z M309.908,55.942 L306.578,55.942 L308.252,51.37 L309.908,55.942 Z M322.472,61 L322.472,50.38 L326.468,50.38 L326.468,47.77 L315.668,47.77 L315.668,50.38 L319.664,50.38 L319.664,61 L322.472,61 Z M331.022,61 L331.022,55.474 L336.35,55.474 L336.35,61 L339.158,61 L339.158,47.77 L336.35,47.77 L336.35,52.9 L331.022,52.9 L331.022,47.77 L328.232,47.77 L328.232,61 L331.022,61 Z" id="THINKERMATH"></path>
        </g>
    </g>
</svg>