<?xml version="1.0" encoding="UTF-8"?>
<svg width="62px" height="74px" viewBox="0 0 62 74" version="1.1" xmlns="http://www.w3.org/2000/svg" xmlns:xlink="http://www.w3.org/1999/xlink">
    <title>pi</title>
    <g id="Welcome" stroke="none" stroke-width="1" fill="none" fill-rule="evenodd">
        <g id="DESKTOP-HD---DARK" transform="translate(-751.000000, -1416.000000)" fill-rule="nonzero">
            <g id="Group-30" transform="translate(692.000000, 1387.000000)">
                <g id="pi" transform="translate(59.000000, 29.000000)">
                    <path d="M51.6659084,28.4930867 L51.6659084,33.4140545 C51.6659084,35.3294279 50.0637084,36.8877463 48.0940706,36.8877463 C46.1245802,36.8877463 44.5222329,35.3295711 44.5222329,33.4140545 L44.5222329,9.10523299 L58.9582385,9.10523299 L58.9582385,1 L20.501904,1 C14.8603923,1 9.54388773,3.40940441 5.91547576,7.61024455 L1,13.3012016 L7.38154396,18.5143183 L12.2970197,12.8233612 C14.2868415,10.5196978 17.1796412,9.17758963 20.2638208,9.11139405 L20.2638208,13.8740369 C20.2638208,22.2270019 17.3833968,30.4762317 12.1532269,37.1019506 L9.81482527,40.0644176 L16.4257601,45 L18.7641617,42.037533 C25.1056322,34.0039402 28.5980598,24.0019603 28.5980598,13.8740369 L28.5980598,9.10523299 L36.1881413,9.10523299 L36.1881413,33.4140545 C36.1881413,39.7986323 41.5291024,44.992836 48.0940706,44.992836 C54.6590389,44.992836 60,39.7986323 60,33.4140545 L60,28.4930867 L51.6659084,28.4930867 Z" id="Path" fill="#97E4F9"></path>
                    <g id="Group" transform="translate(14.000000, 1.000000)" fill="#0ACEFA">
                        <path d="M41.739164,27.4832857 L41.739164,32.3897143 C41.739164,38.2167143 37.3430547,43.0462857 31.6538103,43.8225714 C32.1797749,43.8942857 32.7160129,43.9344286 33.2616559,43.9344286 C39.7092444,43.9344286 44.9547106,38.7555714 44.9547106,32.3898571 L44.9547106,27.4832857 L41.739164,27.4832857 L41.739164,27.4832857 Z" id="Path"></path>
                        <path d="M26.538135,8.15328571 L26.538135,32.3122857 C26.538135,34.1328571 27.9299518,35.7011429 29.7684405,35.8424286 C30.4506752,35.8948571 31.0954341,35.752 31.6538103,35.4664286 C30.5263505,34.8897143 29.7536817,33.7275714 29.7536817,32.3898571 L29.7536817,8.15271429 L43.9315756,8.15271429 L43.9315756,0.0714285714 L40.7160289,0.0714285714 L40.7160289,3.824 C40.7160289,4.621 40.0615756,5.26714286 39.2543248,5.26714286 L29.4613987,5.26714286 C27.8468971,5.26714286 26.538135,6.55928571 26.538135,8.15328571 Z" id="Path"></path>
                        <path d="M10.898537,12.9075714 C10.898537,23.0055714 7.46855305,32.978 1.24046624,40.9878571 L0.136157556,42.4081429 L2.15942122,43.9415714 L4.45601286,40.9878571 C10.6840997,32.978 14.1140836,23.0055714 14.1140836,12.9075714 L14.1140836,8.15271429 L12.3600965,8.15271429 C11.5528457,8.15271429 10.8983923,8.79885714 10.8983923,9.59585714 L10.8983923,12.9075714 L10.898537,12.9075714 Z" id="Path"></path>
                    </g>
                    <path d="M32.0806193,2.25087925 L56.8387613,2.25087925 L56.8387613,8.48866589 L43.8014491,8.48866589 C43.204659,8.48866589 42.7208297,8.99256272 42.7208297,9.61410551 L42.7208297,14.8745604 C42.7208297,15.4961032 43.204659,16 43.8014491,16 C44.3982391,16 44.8820684,15.4961032 44.8820684,14.8745604 L44.8820684,10.7395451 L57.9193807,10.7395451 C58.5161707,10.7395451 59,10.2356483 59,9.61410551 L59,1.12543962 C59,0.503896835 58.5161707,0 57.9193807,0 L32.0806193,0 C31.4838293,0 31,0.503896835 31,1.12543962 C31,1.74698242 31.4838293,2.25087925 32.0806193,2.25087925 L32.0806193,2.25087925 Z" id="Path" fill="#000000"></path>
                    <path d="M50.9278676,27.3712041 C50.3413629,27.3712041 49.865872,27.8562154 49.865872,28.4544634 L49.865872,33.4150689 C49.865872,34.7486333 48.8023189,35.8334814 47.4949316,35.8334814 C46.1875442,35.8334814 45.1239911,34.7486333 45.1239911,33.4150689 L45.1239911,19.0832593 C45.1239911,18.4850113 44.6485003,18 44.0619956,18 C43.4754908,18 43,18.4850113 43,19.0832593 L43,33.4150689 C43,35.9432517 45.0163756,38 47.4949316,38 C49.9734876,38 51.9898631,35.9432517 51.9898631,33.4150689 L51.9898631,29.5377227 L57.8760089,29.5377227 L57.8760089,30.3491561 C57.8760089,30.9474041 58.3514997,31.4324155 58.9380044,31.4324155 C59.5245092,31.4324155 60,30.9474041 60,30.3491561 L60,28.4544634 C60,27.8562154 59.5245092,27.3712041 58.9380044,27.3712041 L50.9278676,27.3712041 Z" id="Path" fill="#000000"></path>
                    <path d="M8.19146041,19.2177118 L13.0237411,13.545172 C14.5297372,11.7773859 16.6414341,10.6347088 18.9377957,10.3159418 L18.9377957,13.9036421 C18.9377957,21.9950697 16.1859274,29.9859543 11.189114,36.4041404 L8.89014529,39.3570202 C8.71474989,39.5823851 8.63726308,39.8671618 8.67477539,40.1487965 C8.7122877,40.4304312 8.86190243,40.6857876 9.0903075,40.8588815 L15.5893514,45.7784912 C15.7800993,45.9228789 16.0128494,46 16.2508136,46 C16.297885,46 16.3451013,45.9970008 16.3924624,45.9908597 C16.6780774,45.9538702 16.9370427,45.8063404 17.1125829,45.5811184 L19.4114067,42.6282386 C25.7903823,34.4345542 29.3035042,24.2332943 29.3035042,13.9036421 L29.3035042,10.2212542 L34.5925951,10.2212542 L34.5925951,33.3802807 C34.5925951,40.3348867 40.3305301,45.9928592 47.3834237,45.9928592 C53.6136535,45.9928592 58.9128828,41.6033854 59.9836492,35.5556659 C60.0867718,34.9728307 59.6913718,34.4179875 59.1004443,34.3163019 C58.5096616,34.214902 57.9466873,34.604649 57.8435647,35.1871986 C56.9547112,40.2070657 52.5556325,43.8506074 47.3834237,43.8506074 C41.5284618,43.8506074 36.7651226,39.1536491 36.7651226,33.3802807 L36.7651226,9.15012838 C36.7651226,8.55858127 36.2787661,8.07900252 35.6788588,8.07900252 L28.2172404,8.07900252 C27.6173331,8.07900252 27.1309766,8.55858127 27.1309766,9.15012838 L27.1309766,13.9036421 C27.1309766,23.7641412 23.777463,33.5022463 17.688013,41.3237501 L16.0506514,43.4270129 L11.2748564,39.8118917 L12.9123629,37.7086289 C18.1988467,30.918405 21.1103233,22.4642228 21.1103233,13.9036421 L21.1103233,9.15641232 C21.1103233,8.86820805 20.9925723,8.59214321 20.78372,8.39077155 C20.5748677,8.18939989 20.2954806,8.07928815 20.0001617,8.08557209 C16.6572211,8.15826583 13.5082148,9.64598825 11.3603092,12.1674185 L7.22671333,17.0197615 L2.61660978,13.201412 L6.75020561,8.34906905 C10.1102368,4.40446954 15.0336188,2.14225172 20.2579683,2.14225172 L26.9752788,2.14225172 C27.5751861,2.14225172 28.0615426,1.66267297 28.0615426,1.07112586 C28.0615426,0.479578753 27.5751861,0 26.9752788,0 L20.2579683,0 C14.390261,0 8.86059891,2.54085336 5.08677365,6.97117274 L0.254492946,12.6435697 C0.0692487598,12.8610796 -0.0208387176,13.1422859 0.00407293209,13.4253487 C0.0289845818,13.7082688 0.167012501,13.9699091 0.38759647,14.1527146 L6.66113198,19.3489604 C7.12054915,19.7295671 7.80561951,19.6707266 8.19146041,19.2177118 L8.19146041,19.2177118 Z" id="Path" fill="#000000"></path>
                    <path d="M60.9082761,49 L2.0917239,49 C1.48880118,49 1,49.4477333 1,50 C1,50.5522667 1.48880118,51 2.0917239,51 L60.9082761,51 C61.5111988,51 62,50.5522667 62,50 C62,49.4477333 61.5111988,49 60.9082761,49 Z" id="Path" fill="#000000"></path>
                    <path d="M20.5911131,55 L17.4088869,55 C15.5291319,55 14,56.4740034 14,58.2858023 C14,58.9146335 14.5289272,59.4244392 15.1813442,59.4244392 C15.8337612,59.4244392 16.3626884,58.9146335 16.3626884,58.2858023 C16.3626884,57.7296921 16.8319183,57.2772737 17.4088869,57.2772737 L20.5911131,57.2772737 C21.1680817,57.2772737 21.6373116,57.7296921 21.6373116,58.2858023 L21.6373116,61.3529864 C21.6373116,61.9090966 21.1680817,62.361515 20.5911131,62.361515 L18.3635705,62.361515 C17.7111535,62.361515 17.1822263,62.8713206 17.1822263,63.5001518 C17.1822263,64.128983 17.7111535,64.6387887 18.3635705,64.6387887 L20.5911131,64.6387887 C21.1680817,64.6387887 21.6373116,65.0910552 21.6373116,65.6471655 L21.6373116,68.7143495 C21.6373116,69.2704597 21.1680817,69.7227263 20.5911131,69.7227263 L17.4088869,69.7227263 C16.8319183,69.7227263 16.3626884,69.2704597 16.3626884,68.7143495 C16.3626884,68.0855183 15.8337612,67.5757127 15.1813442,67.5757127 C14.5289272,67.5757127 14,68.0855183 14,68.7143495 C14,70.5261485 15.5291319,72 17.4088869,72 L20.5911131,72 C22.4708681,72 24,70.5261485 24,68.7143495 L24,65.6471655 C24,64.8268915 23.6857624,64.0764539 23.1681762,63.5001518 C23.6857624,62.9238498 24,62.1734122 24,61.3531382 L24,58.2859541 C24,56.4740034 22.4707105,55 20.5911131,55 Z" id="Path" fill="#000000"></path>
                    <path d="M47.8186558,55 C47.1662388,55 46.6373116,55.5098102 46.6373116,56.138647 L46.6373116,62.3614289 L42.4088869,62.3614289 C41.8319183,62.3614289 41.3626884,61.9090065 41.3626884,61.3528913 L41.3626884,56.138647 C41.3626884,55.5098102 40.8337612,55 40.1813442,55 C39.5289272,55 39,55.5098102 39,56.138647 L39,61.3528913 C39,63.1647064 40.5291319,64.6387229 42.4088869,64.6387229 L46.6373116,64.6387229 L46.6373116,70.861353 C46.6373116,71.4901898 47.1662388,72 47.8186558,72 C48.4710728,72 49,71.4901898 49,70.861353 L49,63.5000759 L49,56.138647 C49,55.5098102 48.4712303,55 47.8186558,55 L47.8186558,55 Z" id="Path" fill="#000000"></path>
                    <path d="M35.8533279,55 C35.2200591,55 34.7066558,55.5098102 34.7066558,56.138647 L34.7066558,56.75215 C34.7066558,58.1537486 33.5583019,59.2942175 32.1466721,59.2942175 C31.5134033,59.2942175 31,59.8040277 31,60.4328645 C31,61.0617013 31.5134033,61.5715115 32.1466721,61.5715115 C33.0857201,61.5715115 33.9628478,61.3044608 34.7066558,60.843992 L34.7066558,70.861353 C34.7066558,71.4901898 35.2200591,72 35.8533279,72 C36.4865967,72 37,71.4901898 37,70.861353 L37,56.138647 C37,55.5098102 36.4865967,55 35.8533279,55 Z" id="Path" fill="#000000"></path>
                    <path d="M27.2983971,67.3120252 C26.9005343,67.7280352 26.9005343,68.4025424 27.2983971,68.8184103 C27.7280456,69.2676556 27.9645356,69.8647557 27.9645356,70.4999201 C27.9645356,71.1352266 27.7279097,71.7323266 27.2983971,72.1815719 C26.9005343,72.5975819 26.9005343,73.2720891 27.2983971,73.687957 C27.4972606,73.895891 27.7580652,74 28.018734,74 C28.2794028,74 28.5402074,73.896033 28.7390709,73.687957 C30.4203097,71.9300343 30.4203097,69.0698059 28.7390709,67.3118832 C28.3413439,66.8960153 27.69626,66.8960153 27.2983971,67.3120252 L27.2983971,67.3120252 Z" id="Path" fill="#000000"></path>
                </g>
            </g>
        </g>
    </g>
</svg>