<svg xmlns="http://www.w3.org/2000/svg" xmlns:xlink="http://www.w3.org/1999/xlink" width="1681" height="618" viewBox="0 0 1681 618"><defs><clipPath id="a"><rect width="1681" height="618" fill="#fc0"/></clipPath></defs><g clip-path="url(#a)"><g transform="translate(-737.257 -501.634)"><path d="M887.37,1458.441c-5.384,4.525-11.65,7.51-19.536,7.51a34.226,34.226,0,0,1-5.74-.495.815.815,0,0,1-.664-.933.8.8,0,0,1,.931-.664c9.926,1.662,17.44-1.33,23.739-6.529-5.474-4.972-10.048-11.484-14.558-17.907-11.254-16.043-21.892-31.2-45.227-18.5a.817.817,0,0,1-1.1-.324c-.008-.017-.008-.04-.016-.057s-.024-.016-.032-.024a.806.806,0,0,1,.153-1.135c15.481-11.76,14.355-24.307,9.595-37.495-13.772,2.466-25.188,7.762-27.617,27.073a.806.806,0,0,1-.8.714c-.041,0-.073-.008-.105-.008-.016-.008-.024-.016-.041-.016s-.032.008-.049.008h-.024a.808.808,0,0,1-.81-.786c-.688-26.594-19.107-28.241-38.6-29.984-7.8-.7-15.723-1.411-22.759-3.675-1.352,8.07-.178,16.084,6.226,23.862a.8.8,0,0,1-.105,1.143.843.843,0,0,1-.518.187.8.8,0,0,1-.624-.292c-6.9-8.37-8.072-16.9-6.566-25.434-8.137-2.96-14.922-8.249-18.711-18.411a.812.812,0,1,1,1.523-.567c3.522,9.448,9.869,14.469,17.512,17.331,1.554-7.234,4.9-14.46,8.2-21.582,8.25-17.786,16.031-34.583-6.615-48.484a.817.817,0,0,1-.267-1.12c.008-.016.024-.024.032-.041s0-.024.008-.041a.809.809,0,0,1,1.061-.429c17.9,7.55,28.192.3,37.211-10.422-9.02-10.723-19.3-17.973-37.211-10.422a.809.809,0,0,1-1.061-.43.049.049,0,0,1-.008-.032.217.217,0,0,1-.041-.049.815.815,0,0,1,.267-1.12c18.266-11.209,16.735-24.3,11.141-38.273-14.881,2.133-26.961,7.357-27.52,28.8a.813.813,0,0,1-.809.787h-.024c-.016,0-.032-.008-.049-.008s-.024.016-.041.016a.493.493,0,0,1-.105.008.806.806,0,0,1-.8-.714c-2.429-19.311-13.837-24.607-27.617-27.073-4.761,13.188-5.887,25.735,9.594,37.495a.813.813,0,0,1,.154,1.136c-.008.007-.024.015-.032.023a.542.542,0,0,1-.016.058.82.82,0,0,1-1.1.324c-23.341-12.7-33.972,2.458-45.226,18.5-4.5,6.423-9.085,12.936-14.557,17.907,6.3,5.2,13.812,8.192,23.738,6.521a.8.8,0,0,1,.932.665.814.814,0,0,1-.664.932,35.169,35.169,0,0,1-5.74.495c-7.886,0-14.152-2.985-19.537-7.51-5.384,4.525-11.651,7.51-19.536,7.51a34.224,34.224,0,0,1-5.74-.495.814.814,0,0,1-.664-.932.8.8,0,0,1,.932-.665c9.926,1.662,17.439-1.33,23.738-6.53-5.473-4.972-10.048-11.484-14.557-17.907-11.254-16.042-21.884-31.2-45.227-18.5a.809.809,0,0,1-1.1-.325.5.5,0,0,0-.016-.057c-.008-.008-.024-.015-.032-.024a.8.8,0,0,1,.154-1.135c15.48-11.76,14.355-24.307,9.594-37.495-13.772,2.466-25.188,7.762-27.617,27.073a.806.806,0,0,1-.8.714c-.04,0-.073-.008-.105-.008-.016-.008-.024-.016-.04-.016s-.032.008-.049.008h-.024a.808.808,0,0,1-.81-.787c-.558-21.444-12.638-26.668-27.519-28.8-5.594,13.974-7.117,27.065,11.14,38.273a.817.817,0,0,1,.267,1.12.217.217,0,0,0-.041.049c-.008.008,0,.024-.008.032a.811.811,0,0,1-1.06.43c-17.9-7.551-28.192-.3-37.211,10.422,9.02,10.722,19.3,17.972,37.211,10.421a.805.805,0,0,1,1.06.43c.008.008,0,.024.008.041s.024.024.032.04a.815.815,0,0,1-.267,1.12c-22.645,13.893-14.856,30.7-6.614,48.484,3.295,7.122,6.638,14.348,8.2,21.582,7.651-2.863,13.99-7.891,17.512-17.332a.812.812,0,1,1,1.522.568c-3.789,10.163-10.581,15.45-18.71,18.411,1.506,8.532.323,17.064-6.566,25.434a.8.8,0,0,1-.624.292.831.831,0,0,1-.518-.187.818.818,0,0,1-.105-1.143c6.4-7.778,7.571-15.8,6.226-23.861-7.027,2.263-14.953,2.976-22.759,3.674-19.5,1.743-37.923,3.39-38.612,29.984a.813.813,0,0,1-.809.787h-.024c-.016,0-.032-.008-.049-.008s-.024.016-.04.016a.493.493,0,0,1-.105.008.806.806,0,0,1-.8-.714c-2.429-19.311-13.837-24.607-27.617-27.073-4.761,13.188-5.886,25.735,9.594,37.495a.813.813,0,0,1,.154,1.136c-.008.007-.024.015-.032.023a.477.477,0,0,1-.016.058.821.821,0,0,1-1.1.324c-23.342-12.7-33.973,2.458-45.227,18.5-4.5,6.423-9.085,12.936-14.558,17.907,6.3,5.2,13.812,8.192,23.738,6.521a.8.8,0,0,1,.932.665.814.814,0,0,1-.664.932,35.168,35.168,0,0,1-5.74.495c-7.886,0-14.152-2.985-19.537-7.51-5.384,4.525-11.65,7.51-19.536,7.51a34.225,34.225,0,0,1-5.74-.495.814.814,0,0,1-.664-.932.8.8,0,0,1,.932-.665c9.926,1.662,17.439-1.33,23.738-6.53-5.473-4.972-10.048-11.484-14.557-17.907-11.254-16.042-21.884-31.2-45.227-18.5a.817.817,0,0,1-1.1-.325.581.581,0,0,0-.016-.057c-.008-.008-.024-.015-.032-.024a.8.8,0,0,1,.154-1.135c15.48-11.76,14.355-24.307,9.594-37.495-13.772,2.466-25.187,7.762-27.617,27.073a.806.806,0,0,1-.8.714c-.041,0-.073-.008-.105-.008-.016-.008-.024-.016-.04-.016s-.032.008-.049.008H323.8a.807.807,0,0,1-.809-.787c-.7-26.594-19.116-28.241-38.612-29.984-7.806-.7-15.724-1.411-22.759-3.675-1.353,8.07-.178,16.084,6.226,23.862a.8.8,0,0,1-.105,1.143.843.843,0,0,1-.518.187.8.8,0,0,1-.624-.292c-6.9-8.37-8.072-16.9-6.566-25.434-8.137-2.961-14.921-8.249-18.71-18.411a.812.812,0,1,1,1.522-.568c3.522,9.449,9.869,14.469,17.512,17.332,1.555-7.234,4.9-14.46,8.2-21.582,8.25-17.786,16.031-34.583-6.614-48.484a.817.817,0,0,1-.267-1.12c.008-.016.024-.024.032-.041s0-.024.008-.04a.809.809,0,0,1,1.06-.43c17.9,7.551,28.192.3,37.211-10.422-9.02-10.722-19.3-17.972-37.211-10.421a.808.808,0,0,1-1.06-.43.049.049,0,0,1-.008-.032.215.215,0,0,1-.04-.049.815.815,0,0,1,.267-1.12c18.266-11.209,16.735-24.3,11.14-38.273-14.882,2.134-26.961,7.357-27.519,28.8a.814.814,0,0,1-.81.787h-.024c-.016,0-.032-.008-.049-.008s-.024.016-.041.016a.5.5,0,0,1-.105.008.806.806,0,0,1-.8-.714c-2.428-19.311-13.837-24.607-27.617-27.073-4.761,13.188-5.886,25.735,9.594,37.495a.812.812,0,0,1,.154,1.135c-.008.008-.024.017-.032.024-.008.024-.008.04-.016.057a.821.821,0,0,1-1.1.324c-23.342-12.7-33.973,2.457-45.227,18.5-4.5,6.423-9.085,12.936-14.557,17.907,6.3,5.2,13.812,8.192,23.738,6.521a.8.8,0,0,1,.932.664.815.815,0,0,1-.664.933,35.181,35.181,0,0,1-5.74.495c-7.886,0-14.152-2.985-19.536-7.51-5.385,4.525-11.651,7.51-19.537,7.51a34.238,34.238,0,0,1-5.74-.495.815.815,0,0,1-.664-.933.8.8,0,0,1,.932-.664c9.926,1.662,17.439-1.33,23.738-6.53-5.473-4.972-10.048-11.484-14.558-17.907-11.254-16.043-21.884-31.2-45.226-18.5a.81.81,0,0,1-1.1-.325.441.441,0,0,0-.016-.056c-.008-.009-.024-.017-.032-.025a.8.8,0,0,1,.154-1.135c15.481-11.76,14.355-24.307,9.594-37.495-13.772,2.465-25.187,7.762-27.617,27.073a.806.806,0,0,1-.8.714c-.041,0-.073-.008-.105-.008-.016-.008-.024-.016-.041-.016s-.032.008-.049.008h-.024a.808.808,0,0,1-.809-.787c-.7-26.594-19.116-28.241-38.612-29.984-7.8-.7-15.724-1.411-22.759-3.675-1.352,8.07-.178,16.083,6.226,23.862a.8.8,0,0,1-.105,1.143.848.848,0,0,1-.518.187.8.8,0,0,1-.624-.292c-6.9-8.37-8.072-16.9-6.566-25.434-8.137-2.961-14.922-8.248-18.711-18.411a.812.812,0,1,1,1.522-.568c3.522,9.449,9.869,14.469,17.513,17.332,1.554-7.234,4.9-14.46,8.2-21.582,8.25-17.786,16.032-34.582-6.614-48.484a.817.817,0,0,1-.267-1.12c.008-.016.024-.024.032-.04s0-.024.008-.041a.809.809,0,0,1,1.06-.43c17.9,7.551,28.192.3,37.211-10.422-9.019-10.714-19.3-17.972-37.211-10.421a.8.8,0,0,1-1.06-.43.049.049,0,0,1-.008-.032.212.212,0,0,1-.041-.049.815.815,0,0,1,.267-1.12c22.646-13.9,14.856-30.7,6.614-48.484-3.295-7.122-6.647-14.348-8.2-21.582-7.644,2.863-13.991,7.891-17.513,17.332a.812.812,0,0,1-.761.526.87.87,0,0,1-.283-.049.817.817,0,0,1-.478-1.046c3.789-10.163,10.582-15.45,18.711-18.411-1.507-8.532-.324-17.064,6.566-25.434a.811.811,0,1,1,1.247,1.038c-6.4,7.778-7.57,15.8-6.226,23.862,7.027-2.264,14.954-2.977,22.759-3.675,19.5-1.743,37.923-3.39,38.612-29.984a.788.788,0,0,1,.833-.787c.016,0,.032.008.049.008s.024-.016.04-.016a.818.818,0,0,1,.907.706c2.429,19.311,13.837,24.607,27.617,27.073,4.761-13.18,5.887-25.735-9.594-37.495a.812.812,0,0,1-.154-1.135c.008-.008.024-.016.032-.024s.008-.032.016-.049a.822.822,0,0,1,1.1-.325c18.815,10.236,29.365,2.368,38.652-9.473-9.279-11.841-19.837-19.708-38.652-9.472a.817.817,0,0,1-1.1-.325c-.008-.016-.008-.041-.016-.057s-.024-.016-.032-.024a.8.8,0,0,1,.154-1.135c15.481-11.76,14.355-24.307,9.594-37.495C97.418,965.884,86,971.18,83.573,990.491a.806.806,0,0,1-.8.714.427.427,0,0,1-.105-.008c-.016-.008-.024-.016-.04-.016s-.032.008-.049.008h-.024a.808.808,0,0,1-.809-.787c-.7-26.6-19.116-28.241-38.612-29.984-7.8-.7-15.724-1.411-22.759-3.675-1.352,8.07-.178,16.083,6.226,23.862a.811.811,0,0,1-1.247,1.038c-6.9-8.37-8.072-16.9-6.566-25.434C10.649,953.248,3.864,947.96.075,937.8a.812.812,0,1,1,1.522-.568c3.522,9.441,9.869,14.469,17.513,17.332,1.554-7.234,4.9-14.461,8.2-21.582C35.561,915.194,43.342,898.4,20.7,884.5a.817.817,0,0,1-.267-1.12c.008-.016.024-.024.032-.04s0-.024.008-.041a.809.809,0,0,1,1.06-.43c17.91,7.551,28.193.3,37.211-10.422-9.019-10.722-19.3-17.972-37.211-10.422a.8.8,0,0,1-1.06-.429.049.049,0,0,1-.008-.032.215.215,0,0,1-.04-.049.815.815,0,0,1,.267-1.12c22.646-13.9,14.856-30.7,6.615-48.484-3.3-7.122-6.647-14.348-8.2-21.582-7.644,2.863-13.991,7.891-17.513,17.331a.811.811,0,0,1-.761.527.868.868,0,0,1-.283-.049.817.817,0,0,1-.478-1.046c3.789-10.163,10.582-15.45,18.711-18.411-1.507-8.532-.324-17.064,6.566-25.434a.811.811,0,1,1,1.247,1.038c-6.4,7.778-7.57,15.8-6.226,23.861,7.027-2.263,14.954-2.976,22.759-3.674,19.5-1.743,37.923-3.39,38.612-29.984a.788.788,0,0,1,.833-.787c.016,0,.032.008.049.008s.024-.016.04-.016a.818.818,0,0,1,.907.706C85.994,773.707,97.4,779,111.182,781.468c4.761-13.18,5.887-25.735-9.594-37.495a.812.812,0,0,1-.154-1.135c.008-.008.024-.016.032-.024s.008-.033.016-.049a.822.822,0,0,1,1.1-.324c18.815,10.236,29.365,2.368,38.652-9.473-9.279-11.841-19.837-19.708-38.652-9.473a.81.81,0,0,1-1.1-.325c-.008-.016-.008-.04-.016-.057s-.024-.016-.032-.024a.8.8,0,0,1,.154-1.135c15.481-11.76,14.355-24.307,9.594-37.495-13.772,2.465-25.187,7.762-27.617,27.073a.806.806,0,0,1-.8.714.427.427,0,0,1-.105-.008c-.016-.008-.024-.016-.04-.016s-.032.008-.049.008h-.024a.808.808,0,0,1-.809-.787c-.7-26.595-19.116-28.241-38.612-29.985-7.8-.7-15.724-1.411-22.759-3.674-1.352,8.07-.178,16.083,6.226,23.861a.812.812,0,0,1-1.247,1.039c-6.9-8.37-8.072-16.9-6.566-25.435C10.641,674.288,3.856,669,.067,658.838a.812.812,0,1,1,1.522-.568C5.11,667.711,11.458,672.739,19.1,675.6c1.554-7.234,4.9-14.461,8.2-21.582,8.249-17.786,16.031-34.583-6.615-48.484a.817.817,0,0,1-.267-1.12c.008-.016.024-.024.032-.041s0-.024.008-.04a.809.809,0,0,1,1.06-.43c17.91,7.551,28.193.3,37.211-10.422-9.019-10.722-19.3-17.972-37.211-10.422a.8.8,0,0,1-1.06-.429.049.049,0,0,1-.008-.032.215.215,0,0,1-.04-.049.815.815,0,0,1,.267-1.12c22.646-13.9,14.856-30.7,6.615-48.484-3.3-7.122-6.647-14.348-8.2-21.582C11.45,514.229,5.1,519.257,1.58,528.7a.811.811,0,0,1-.761.527.868.868,0,0,1-.283-.049.817.817,0,0,1-.478-1.046c3.789-10.163,10.582-15.451,18.711-18.411-1.507-8.532-.324-17.064,6.566-25.434a.811.811,0,1,1,1.247,1.038c-6.4,7.778-7.57,15.8-6.226,23.861,7.027-2.263,14.954-2.976,22.759-3.674,19.5-1.743,37.923-3.39,38.612-29.984a.793.793,0,0,1,.833-.787c.016,0,.032.008.049.008s.024-.016.041-.016a.812.812,0,0,1,.907.706c2.429,19.311,13.837,24.607,27.617,27.073,4.761-13.18,5.887-25.735-9.594-37.495a.813.813,0,0,1-.154-1.136c.008-.007.024-.016.032-.024s.008-.032.016-.049a.822.822,0,0,1,1.1-.324c18.815,10.236,29.365,2.368,38.652-9.473-9.279-11.841-19.837-19.708-38.652-9.473a.817.817,0,0,1-1.1-.325c-.008-.016-.008-.04-.016-.057s-.024-.016-.032-.024a.806.806,0,0,1,.154-1.136c15.481-11.759,14.355-24.306,9.594-37.494-13.772,2.465-25.187,7.762-27.617,27.073a.806.806,0,0,1-.8.714.429.429,0,0,1-.105-.008c-.016-.008-.024-.016-.041-.016s-.032.008-.049.008h-.024a.808.808,0,0,1-.809-.787c-.7-26.594-19.116-28.24-38.612-29.984-7.8-.7-15.724-1.411-22.759-3.674-1.352,8.07-.178,16.083,6.226,23.861a.812.812,0,0,1-1.247,1.039c-6.9-8.37-8.072-16.9-6.566-25.435-8.137-2.96-14.922-8.248-18.711-18.41a.812.812,0,1,1,1.522-.568c3.522,9.441,9.869,14.469,17.513,17.332,1.554-7.234,4.9-14.461,8.2-21.582,8.249-17.786,16.031-34.583-6.615-48.484a.817.817,0,0,1-.267-1.12c.008-.016.024-.024.032-.041s0-.024.008-.04a.816.816,0,0,1,1.06-.43c17.91,7.551,28.192.3,37.211-10.422-9.019-10.722-19.3-17.973-37.211-10.422a.8.8,0,0,1-1.06-.429.049.049,0,0,1-.008-.032.215.215,0,0,1-.041-.049.815.815,0,0,1,.267-1.12c22.646-13.9,14.856-30.7,6.615-48.485-3.3-7.121-6.647-14.347-8.2-21.582-7.644,2.864-13.991,7.884-17.513,17.332a.811.811,0,0,1-.761.527.868.868,0,0,1-.283-.049A.817.817,0,0,1,.05,249.17c3.789-10.163,10.582-15.451,18.711-18.411-1.507-8.532-.324-17.064,6.566-25.434a.811.811,0,1,1,1.247,1.038c-6.4,7.778-7.57,15.8-6.226,23.861,7.027-2.263,14.954-2.976,22.759-3.674,19.5-1.743,37.923-3.39,38.612-29.984a.8.8,0,0,1,.833-.787c.016,0,.032.008.049.008s.024-.016.04-.016a.812.812,0,0,1,.907.706c2.429,19.311,13.837,24.607,27.617,27.073,4.761-13.18,5.887-25.735-9.594-37.495a.813.813,0,0,1-.154-1.136c.008-.008.024-.016.032-.024s.008-.032.016-.049a.822.822,0,0,1,1.1-.324c23.341,12.7,33.972-2.458,45.226-18.5,4.5-6.423,9.085-12.936,14.557-17.907-6.3-5.207-13.812-8.2-23.738-6.53a.81.81,0,0,1-.267-1.6c10.671-1.8,18.638,1.452,25.269,7.024,6.622-5.572,14.59-8.816,25.268-7.024a.81.81,0,0,1-.267,1.6c-9.918-1.67-17.439,1.33-23.738,6.53,5.473,4.972,10.056,11.484,14.557,17.907,11.254,16.042,21.884,31.2,45.227,18.5a.817.817,0,0,1,1.1.324c.008.016.008.032.016.049s.024.016.032.024a.806.806,0,0,1-.154,1.136c-15.48,11.76-14.355,24.307-9.594,37.495,13.772-2.466,25.188-7.762,27.617-27.073a.816.816,0,0,1,.907-.706c.016.008.024.016.041.016s.032-.008.049-.008a.807.807,0,0,1,.834.787c.558,21.444,12.638,26.667,27.519,28.8,5.594-13.974,7.117-27.064-11.14-38.273a.816.816,0,0,1-.267-1.119c.008-.016.024-.024.032-.04s0-.024.008-.04a.8.8,0,0,1,1.06-.43c17.9,7.551,28.192.3,37.211-10.422-9.02-10.722-19.3-17.973-37.211-10.422a.8.8,0,0,1-1.06-.429.049.049,0,0,1-.008-.032.215.215,0,0,1-.04-.049.815.815,0,0,1,.267-1.12c22.645-13.9,14.856-30.7,6.614-48.485-3.295-7.121-6.647-14.347-8.2-21.582-7.643,2.864-13.991,7.884-17.512,17.332a.811.811,0,0,1-.761.527.869.869,0,0,1-.284-.049.818.818,0,0,1-.477-1.047c3.789-10.162,10.581-15.45,18.711-18.41-1.507-8.532-.324-17.064,6.566-25.434a.811.811,0,1,1,1.247,1.038c-6.4,7.778-7.571,15.8-6.226,23.861,7.027-2.263,14.954-2.976,22.759-3.674,19.5-1.743,37.923-3.39,38.612-29.984a.8.8,0,0,1,.833-.787c.016,0,.032.008.049.008s.024-.016.04-.016a.812.812,0,0,1,.907.706C327.187,76.3,338.594,81.6,352.374,84.065c4.761-13.18,5.886-25.735-9.594-37.495a.813.813,0,0,1-.154-1.136c.008-.008.024-.016.032-.024s.008-.032.016-.049a.821.821,0,0,1,1.1-.324c23.334,12.7,33.973-2.458,45.227-18.5,4.5-6.423,9.085-12.936,14.557-17.907-6.3-5.207-13.812-8.2-23.738-6.53a.81.81,0,0,1-.267-1.6c10.679-1.8,18.638,1.452,25.269,7.024C411.446,1.955,419.413-1.29,430.092.5a.81.81,0,0,1-.267,1.6c-9.934-1.678-17.447,1.322-23.746,6.521,5.473,4.964,10.048,11.484,14.557,17.907,11.254,16.042,21.884,31.2,45.227,18.5a.816.816,0,0,1,1.1.324c.008.016.008.032.016.049s.024.016.032.024a.806.806,0,0,1-.154,1.136c-15.48,11.76-14.355,24.307-9.594,37.495,13.772-2.466,25.188-7.762,27.616-27.073a.816.816,0,0,1,.907-.706c.016.008.024.016.041.016s.032-.008.049-.008a.807.807,0,0,1,.833.787c.7,26.594,19.116,28.241,38.612,29.984,7.806.7,15.724,1.411,22.759,3.674,1.353-8.069.178-16.083-6.226-23.861a.811.811,0,1,1,1.247-1.038c6.9,8.37,8.072,16.9,6.566,25.434,8.137,2.96,14.921,8.248,18.71,18.41a.815.815,0,0,1-.477,1.047.869.869,0,0,1-.284.049.811.811,0,0,1-.761-.527c-3.522-9.44-9.869-14.468-17.512-17.332-1.555,7.235-4.9,14.461-8.2,21.582-8.25,17.787-16.031,34.583,6.615,48.485a.817.817,0,0,1,.266,1.12.216.216,0,0,0-.041.049c-.008.008,0,.024-.008.032a.819.819,0,0,1-1.06.429c-17.909-7.551-28.192-.3-37.211,10.422,9.02,10.715,19.3,17.973,37.211,10.422a.8.8,0,0,1,1.06.43c.008.016,0,.024.008.04s.024.024.032.041a.814.814,0,0,1-.267,1.119c-18.266,11.21-16.735,24.3-11.14,38.273,14.881-2.133,26.961-7.356,27.519-28.8a.807.807,0,0,1,.834-.787c.016,0,.032.008.049.008s.024-.016.041-.016a.812.812,0,0,1,.907.706c2.428,19.311,13.837,24.607,27.616,27.073,4.761-13.18,5.886-25.735-9.594-37.495a.813.813,0,0,1-.154-1.136c.008-.008.024-.016.032-.024s.008-.032.016-.049a.818.818,0,0,1,1.1-.324c23.342,12.7,33.973-2.458,45.227-18.5,4.51-6.423,9.085-12.936,14.557-17.907-6.3-5.207-13.812-8.2-23.738-6.529a.81.81,0,0,1-.267-1.6c10.679-1.8,18.638,1.452,25.268,7.024,6.623-5.572,14.59-8.816,25.269-7.024a.81.81,0,0,1-.267,1.6c-9.918-1.67-17.439,1.33-23.738,6.529,5.473,4.972,10.056,11.484,14.557,17.907,11.254,16.042,21.884,31.2,45.226,18.5a.817.817,0,0,1,1.1.324c.008.016.008.032.016.049s.024.016.032.024a.806.806,0,0,1-.154,1.136c-15.48,11.76-14.355,24.307-9.594,37.495,13.772-2.466,25.187-7.762,27.617-27.073a.816.816,0,0,1,.907-.706c.016.008.024.016.04.016s.032-.008.049-.008a.8.8,0,0,1,.833.787c.559,21.444,12.639,26.667,27.52,28.8,5.594-13.974,7.116-27.064-11.141-38.273a.816.816,0,0,1-.267-1.119c.008-.016.024-.024.032-.041s0-.024.008-.04a.8.8,0,0,1,1.061-.43c17.9,7.551,28.192.3,37.211-10.422-9.02-10.722-19.3-17.973-37.211-10.422a.8.8,0,0,1-1.061-.429.049.049,0,0,1-.008-.032.215.215,0,0,1-.04-.049.815.815,0,0,1,.267-1.12c22.646-13.9,14.857-30.7,6.615-48.485-3.295-7.121-6.647-14.347-8.2-21.582-7.651,2.864-13.991,7.884-17.512,17.332a.811.811,0,0,1-.761.527.87.87,0,0,1-.284-.049.818.818,0,0,1-.478-1.047c3.789-10.162,10.582-15.45,18.711-18.41-1.506-8.532-.324-17.064,6.566-25.434a.811.811,0,1,1,1.247,1.038c-6.4,7.778-7.57,15.8-6.226,23.861,7.028-2.263,14.954-2.976,22.759-3.674,19.5-1.743,37.916-3.39,38.6-29.984a.812.812,0,0,1,.834-.787c.016,0,.032.008.049.008s.024-.016.041-.016a.811.811,0,0,1,.906.706C809.588,76.3,821,81.591,834.776,84.057c4.761-13.188,5.886-25.735-9.594-37.495a.813.813,0,0,1-.154-1.136c.008-.008.024-.016.032-.024s.008-.032.016-.049a.818.818,0,0,1,1.1-.324c23.334,12.7,33.972-2.458,45.227-18.5,4.51-6.423,9.084-12.936,14.557-17.907-6.3-5.207-13.82-8.2-23.739-6.529a.81.81,0,0,1-.266-1.6C872.635-1.3,880.6,1.947,887.225,7.519,893.848,1.947,901.814-1.3,912.494.5a.81.81,0,0,1-.267,1.6c-9.926-1.67-17.44,1.322-23.738,6.521,5.473,4.964,10.048,11.484,14.557,17.907,11.254,16.043,21.885,31.2,45.227,18.5a.817.817,0,0,1,1.1.324c.008.016.008.032.016.049s.024.016.032.024a.806.806,0,0,1-.154,1.136c-15.481,11.76-14.355,24.307-9.595,37.495,13.773-2.466,25.188-7.762,27.617-27.073a.812.812,0,0,1,.907-.706c.016.008.024.016.04.016s.032-.008.049-.008h.023a.808.808,0,0,1,.81.787c.689,26.594,19.108,28.241,38.6,29.984,7.8.7,15.723,1.411,22.759,3.674,1.352-8.069.178-16.083-6.226-23.861a.811.811,0,1,1,1.246-1.038c6.9,8.362,8.073,16.9,6.566,25.434,8.129,2.96,14.914,8.248,18.7,18.41a.815.815,0,0,1-.478,1.047.87.87,0,0,1-.284.049.811.811,0,0,1-.76-.527c-3.522-9.44-9.869-14.468-17.513-17.332-1.554,7.235-4.9,14.461-8.2,21.582-8.25,17.787-16.031,34.583,6.615,48.485a.817.817,0,0,1,.267,1.12.216.216,0,0,0-.04.049c-.008.008,0,.024-.008.032a.812.812,0,0,1-1.06.429c-17.9-7.551-28.193-.3-37.211,10.422,9.019,10.714,19.3,17.973,37.211,10.422a.8.8,0,0,1,1.06.43c.008.016,0,.024.008.041s.024.024.032.04a.814.814,0,0,1-.267,1.119c-18.257,11.21-16.727,24.3-11.132,38.273,14.881-2.133,26.96-7.356,27.519-28.8a.813.813,0,0,1,.81-.787h.024c.016,0,.032.008.049.008s.024-.016.041-.016a.811.811,0,0,1,.906.706c2.429,19.311,13.837,24.607,27.617,27.073,4.76-13.18,5.886-25.735-9.595-37.495a.815.815,0,0,1-.154-1.136c.008-.008.024-.016.033-.024s.007-.032.015-.049a.819.819,0,0,1,1.1-.324c23.342,12.7,33.972-2.458,45.227-18.5,4.51-6.423,9.084-12.936,14.557-17.907-6.3-5.2-13.813-8.192-23.739-6.521a.8.8,0,0,1-.931-.665.814.814,0,0,1,.663-.932c10.679-1.793,18.646,1.452,25.269,7.024,6.623-5.572,14.59-8.816,25.269-7.024a.81.81,0,0,1-.267,1.6c-9.926-1.67-17.44,1.322-23.739,6.521,5.474,4.964,10.048,11.484,14.557,17.907,11.255,16.042,21.893,31.2,45.227,18.5a.817.817,0,0,1,1.1.324.5.5,0,0,0,.016.049c.008.008.024.016.032.024a.808.808,0,0,1-.154,1.136c-15.481,11.76-14.355,24.307-9.595,37.495,13.773-2.466,25.188-7.762,27.617-27.073a.811.811,0,0,1,.906-.706c.016.008.024.016.04.016s.032-.008.049-.008a.8.8,0,0,1,.834.787c.688,26.594,19.108,28.241,38.6,29.984,7.8.7,15.723,1.411,22.759,3.674,1.352-8.069.178-16.083-6.226-23.861a.811.811,0,1,1,1.246-1.038c6.9,8.37,8.072,16.9,6.566,25.434,8.137,2.96,14.922,8.249,18.711,18.41a.815.815,0,0,1-.478,1.047.87.87,0,0,1-.284.049.81.81,0,0,1-.76-.527c-3.523-9.44-9.869-14.468-17.513-17.332-1.554,7.235-4.9,14.461-8.2,21.582-8.25,17.787-16.031,34.583,6.615,48.485a.817.817,0,0,1,.267,1.12.216.216,0,0,0-.04.049c-.008.008,0,.024-.008.032a.812.812,0,0,1-1.061.429c-17.909-7.551-28.192-.3-37.211,10.422,9.019,10.714,19.3,17.973,37.211,10.422a.8.8,0,0,1,1.061.43c.008.016,0,.024.008.041s.024.024.032.04a.815.815,0,0,1-.267,1.12c-22.646,13.9-14.857,30.7-6.615,48.484,3.3,7.121,6.647,14.348,8.2,21.582,7.643-2.863,13.99-7.883,17.513-17.332a.812.812,0,1,1,1.522.568c-3.789,10.163-10.574,15.45-18.492,18.459,1.506,8.533.324,17.065-6.566,25.435a.8.8,0,0,1-.623.292.83.83,0,0,1-.518-.186.819.819,0,0,1-.105-1.144c6.4-7.778,7.57-15.8,6.226-23.861-7.036,2.263-14.954,2.976-22.759,3.674-19.5,1.744-37.915,3.39-38.6,29.984a.814.814,0,0,1-.81.788h-.024c-.016,0-.032-.008-.049-.008s-.024.016-.041.016a.5.5,0,0,1-.105.008.806.806,0,0,1-.8-.714c-2.429-19.311-13.837-24.608-27.617-27.073-4.76,13.188-5.886,25.735,9.595,37.495a.813.813,0,0,1,.153,1.135c-.008.008-.024.016-.031.024s-.009.04-.016.057a.82.82,0,0,1-1.1.325c-18.808-10.236-29.366-2.369-38.652,9.473,9.278,11.841,19.836,19.709,38.652,9.473a.818.818,0,0,1,1.1.324.46.46,0,0,0,.016.049c.007.008.023.016.031.024a.806.806,0,0,1-.153,1.136c-15.481,11.76-14.355,24.307-9.595,37.495,13.773-2.466,25.188-7.762,27.617-27.073a.811.811,0,0,1,.906-.706c.016.008.024.016.041.016s.032-.008.049-.008a.8.8,0,0,1,.834.787c.688,26.594,19.107,28.241,38.6,29.984,7.8.7,15.723,1.411,22.759,3.674,1.352-8.069.178-16.083-6.226-23.861a.811.811,0,1,1,1.246-1.038c6.9,8.37,8.072,16.9,6.566,25.434,8.137,2.96,14.922,8.249,18.711,18.411a.814.814,0,0,1-.478,1.046.869.869,0,0,1-.283.049.809.809,0,0,1-.76-.527c-3.523-9.44-9.87-14.468-17.513-17.331-1.554,7.234-4.9,14.46-8.2,21.582-8.25,17.786-16.031,34.582,6.615,48.484a.817.817,0,0,1,.267,1.12.213.213,0,0,0-.041.049c-.008.008,0,.024-.008.032a.812.812,0,0,1-1.061.429c-17.909-7.55-28.192-.3-37.21,10.422,9.019,10.714,19.3,17.973,37.21,10.422a.8.8,0,0,1,1.061.43c.008.016,0,.024.008.04s.024.024.032.041a.815.815,0,0,1-.267,1.12c-22.646,13.9-14.857,30.7-6.615,48.484,3.295,7.121,6.647,14.348,8.2,21.582,7.643-2.863,13.99-7.883,17.512-17.332a.813.813,0,1,1,1.523.568c-3.789,10.163-10.582,15.45-18.711,18.411,1.506,8.532.324,17.064-6.566,25.434a.8.8,0,0,1-.624.292.83.83,0,0,1-.518-.186.818.818,0,0,1-.105-1.143c6.4-7.779,7.57-15.8,6.226-23.862-7.036,2.263-14.954,2.977-22.759,3.675-19.5,1.743-37.916,3.389-38.6,29.984a.814.814,0,0,1-.81.787h-.024c-.016,0-.032-.008-.049-.008s-.024.016-.041.016a.5.5,0,0,1-.105.008.806.806,0,0,1-.8-.714c-2.429-19.311-13.837-24.608-27.617-27.073-4.76,13.188-5.886,25.735,9.594,37.495a.812.812,0,0,1,.154,1.135c-.008.008-.023.016-.032.024s-.007.041-.016.057a.818.818,0,0,1-1.1.325c-18.808-10.236-29.366-2.369-38.652,9.473,9.278,11.841,19.836,19.709,38.652,9.473a.816.816,0,0,1,1.1.325.51.51,0,0,1,.016.049c.009.008.024.016.032.024a.8.8,0,0,1-.154,1.135c-15.48,11.76-14.354,24.307-9.594,37.495,13.773-2.466,25.188-7.762,27.617-27.073a.812.812,0,0,1,.906-.706c.016.008.024.016.041.016s.032-.008.049-.008a.8.8,0,0,1,.834.787c.688,26.594,19.107,28.241,38.6,29.984,7.8.7,15.723,1.411,22.759,3.675,1.352-8.07.178-16.084-6.226-23.862a.811.811,0,1,1,1.246-1.038c6.9,8.362,8.072,16.9,6.566,25.434,8.137,2.961,14.922,8.249,18.711,18.411a.814.814,0,0,1-.478,1.046.87.87,0,0,1-.284.049.812.812,0,0,1-.761-.527c-3.522-9.441-9.869-14.469-17.512-17.332-1.554,7.234-4.9,14.46-8.2,21.582-8.25,17.786-16.031,34.583,6.615,48.484a.817.817,0,0,1,.267,1.12.215.215,0,0,0-.04.049c-.008.008,0,.024-.008.032a.812.812,0,0,1-1.061.43c-17.909-7.551-28.192-.3-37.211,10.421,9.019,10.714,19.3,17.973,37.211,10.422a.8.8,0,0,1,1.061.43c.008.016,0,.024.008.041s.024.024.032.04a.815.815,0,0,1-.267,1.12c-22.646,13.9-14.857,30.7-6.615,48.484,3.3,7.121,6.647,14.348,8.2,21.582,7.643-2.863,13.99-7.883,17.512-17.332a.813.813,0,1,1,1.523.568c-3.789,10.163-10.582,15.45-18.711,18.411,1.506,8.532.324,17.064-6.566,25.434a.8.8,0,0,1-.624.292.83.83,0,0,1-.517-.186.818.818,0,0,1-.105-1.143c6.4-7.779,7.57-15.8,6.226-23.862-7.036,2.263-14.954,2.977-22.759,3.675-19.5,1.743-37.916,3.39-38.6,29.984a.814.814,0,0,1-.81.787h-.024c-.016,0-.032-.008-.049-.008s-.024.016-.041.016a.5.5,0,0,1-.105.008.806.806,0,0,1-.8-.714c-2.429-19.311-13.837-24.608-27.617-27.073-4.76,13.188-5.886,25.735,9.595,37.495a.813.813,0,0,1,.153,1.135c-.008.008-.024.016-.031.024s-.009.04-.017.058a.819.819,0,0,1-1.1.324c-18.808-10.236-29.366-2.368-38.652,9.472,9.278,11.841,19.836,19.709,38.652,9.473a.816.816,0,0,1,1.1.325c.008.016.008.032.017.049s.023.016.031.024a.805.805,0,0,1-.153,1.135c-15.481,11.76-14.355,24.307-9.595,37.495,13.772-2.465,25.188-7.762,27.617-27.073a.811.811,0,0,1,.906-.706c.016.008.024.016.041.016s.032-.008.049-.008a.793.793,0,0,1,.834.787c.688,26.595,19.107,28.241,38.6,29.984,7.8.7,15.723,1.411,22.759,3.675,1.352-8.07.178-16.083-6.226-23.862a.811.811,0,1,1,1.247-1.038c6.9,8.362,8.072,16.9,6.566,25.434,8.137,2.961,14.922,8.249,18.711,18.411a.814.814,0,0,1-.478,1.046.867.867,0,0,1-.283.049.812.812,0,0,1-.761-.527c-3.522-9.441-9.869-14.469-17.512-17.332-1.554,7.234-4.9,14.461-8.2,21.582-8.25,17.786-16.031,34.583,6.615,48.484a.817.817,0,0,1,.267,1.12.213.213,0,0,0-.041.049c-.008.008,0,.024-.008.032a.812.812,0,0,1-1.061.43c-17.909-7.551-28.192-.3-37.211,10.422,9.02,10.722,19.3,17.972,37.211,10.422a.8.8,0,0,1,1.061.429c.008.008,0,.024.008.041s.024.024.032.041a.815.815,0,0,1-.267,1.12c-22.646,13.9-14.857,30.7-6.615,48.484,3.3,7.122,6.647,14.348,8.2,21.582,7.643-2.863,13.99-7.891,17.513-17.332a.812.812,0,1,1,1.522.568c-3.789,10.163-10.582,15.45-18.711,18.411,1.506,8.532.324,17.064-6.566,25.434a.8.8,0,0,1-.624.292.811.811,0,0,1-.623-1.33c6.4-7.779,7.57-15.8,6.226-23.862-7.036,2.264-14.954,2.977-22.759,3.675-19.5,1.743-37.916,3.39-38.6,29.984a.808.808,0,0,1-.81.786h-.024c-.016,0-.032-.008-.049-.008s-.024.016-.041.016a.5.5,0,0,1-.105.008.805.805,0,0,1-.8-.714c-2.429-19.311-13.837-24.607-27.617-27.073-4.761,13.188-5.886,25.735,9.594,37.495a.812.812,0,0,1,.154,1.135c-.007.008-.023.016-.032.024s-.008.04-.015.057a.82.82,0,0,1-1.1.324c-23.334-12.7-33.972,2.457-45.227,18.5-4.5,6.424-9.084,12.937-14.557,17.908,6.3,5.207,13.813,8.2,23.739,6.529a.8.8,0,0,1,.931.664.815.815,0,0,1-.663.933,35.169,35.169,0,0,1-5.741.495c-7.886,0-14.152-2.985-19.536-7.51-5.384,4.525-11.651,7.51-19.536,7.51a34.228,34.228,0,0,1-5.741-.495.815.815,0,0,1-.663-.933.8.8,0,0,1,.931-.664c9.926,1.662,17.44-1.33,23.739-6.529-5.474-4.972-10.056-11.484-14.558-17.908-11.254-16.043-21.885-31.2-45.227-18.5a.818.818,0,0,1-1.1-.324.534.534,0,0,0-.016-.057c-.008-.008-.024-.016-.032-.024a.807.807,0,0,1,.154-1.135c15.481-11.76,14.355-24.307,9.595-37.495-13.773,2.466-25.188,7.762-27.617,27.073a.806.806,0,0,1-.8.714c-.041,0-.073-.008-.105-.008-.016-.008-.024-.016-.041-.016s-.032.008-.049.008h-.024a.808.808,0,0,1-.81-.786c-.559-21.444-12.639-26.667-27.519-28.8-5.6,13.975-7.125,27.065,11.132,38.273a.817.817,0,0,1,.267,1.12.215.215,0,0,0-.04.049c-.008.008,0,.024-.008.032a.812.812,0,0,1-1.06.43c-17.9-7.551-28.193-.3-37.211,10.421,9.019,10.723,19.3,17.973,37.211,10.423a.8.8,0,0,1,1.06.429c.008.008,0,.024.008.04s.024.024.032.041a.815.815,0,0,1-.267,1.12c-22.646,13.9-14.857,30.7-6.615,48.484,3.3,7.122,6.647,14.348,8.2,21.582,7.643-2.863,13.99-7.891,17.513-17.332a.812.812,0,1,1,1.522.568c-3.781,10.163-10.574,15.45-18.7,18.411,1.506,8.532.324,17.064-6.566,25.434a.8.8,0,0,1-.623.293.832.832,0,0,1-.518-.187.818.818,0,0,1-.105-1.143c6.4-7.779,7.57-15.8,6.226-23.862-7.028,2.263-14.954,2.977-22.759,3.675-19.5,1.743-37.915,3.39-38.6,29.984a.808.808,0,0,1-.81.787h-.024c-.016,0-.032-.008-.049-.008s-.024.016-.041.016a.5.5,0,0,1-.105.008.806.806,0,0,1-.8-.714c-2.429-19.311-13.837-24.607-27.617-27.073-4.76,13.188-5.886,25.734,9.595,37.495a.813.813,0,0,1,.154,1.135c-.008.008-.024.016-.032.025a.535.535,0,0,1-.016.057.82.82,0,0,1-1.1.324c-23.341-12.7-33.972,2.458-45.227,18.5-4.5,6.423-9.084,12.936-14.557,17.907,6.3,5.2,13.813,8.192,23.739,6.521a.8.8,0,0,1,.931.664.814.814,0,0,1-.663.933,35.167,35.167,0,0,1-5.74.495C899.021,1465.952,892.755,1462.966,887.37,1458.441Z" transform="translate(1126 0)" fill="#0c1229"/><path d="M887.37,1458.441c-5.384,4.525-11.65,7.51-19.536,7.51a34.226,34.226,0,0,1-5.74-.495.815.815,0,0,1-.664-.933.8.8,0,0,1,.931-.664c9.927,1.662,17.44-1.33,23.739-6.529-5.474-4.972-10.048-11.484-14.558-17.907-11.254-16.043-21.892-31.2-45.227-18.5a.817.817,0,0,1-1.1-.324c-.008-.017-.008-.04-.016-.057s-.024-.016-.032-.024a.805.805,0,0,1,.154-1.135c15.48-11.76,14.355-24.307,9.594-37.495-13.772,2.466-25.188,7.762-27.617,27.073a.807.807,0,0,1-.8.714c-.041,0-.073-.008-.105-.008-.016-.008-.024-.016-.041-.016s-.032.008-.049.008h-.024a.808.808,0,0,1-.81-.786c-.688-26.594-19.107-28.241-38.6-29.984-7.8-.7-15.723-1.411-22.759-3.675-1.352,8.07-.178,16.084,6.226,23.862a.8.8,0,0,1-.105,1.143.843.843,0,0,1-.518.187.8.8,0,0,1-.624-.292c-6.9-8.37-8.072-16.9-6.566-25.434-8.137-2.96-14.922-8.249-18.711-18.411a.812.812,0,1,1,1.523-.567c3.522,9.448,9.869,14.469,17.512,17.331,1.554-7.234,4.9-14.46,8.2-21.582,8.25-17.786,16.031-34.583-6.615-48.484a.817.817,0,0,1-.267-1.12c.008-.016.024-.024.032-.041s0-.024.008-.041a.809.809,0,0,1,1.061-.429c17.9,7.55,28.192.3,37.211-10.422-9.02-10.723-19.3-17.973-37.211-10.422a.809.809,0,0,1-1.061-.43.049.049,0,0,1-.008-.032.217.217,0,0,1-.041-.049.815.815,0,0,1,.267-1.12c18.266-11.209,16.735-24.3,11.141-38.273-14.881,2.133-26.961,7.357-27.52,28.8a.813.813,0,0,1-.809.787h-.024c-.016,0-.032-.008-.049-.008s-.024.016-.041.016a.493.493,0,0,1-.105.008.806.806,0,0,1-.8-.714c-2.429-19.311-13.837-24.607-27.617-27.073-4.761,13.188-5.887,25.735,9.594,37.495a.813.813,0,0,1,.154,1.136c-.008.007-.024.015-.032.023a.542.542,0,0,1-.016.058.82.82,0,0,1-1.1.324c-23.341-12.7-33.972,2.458-45.226,18.5-4.5,6.423-9.085,12.936-14.557,17.907,6.3,5.2,13.812,8.192,23.738,6.521a.8.8,0,0,1,.932.665.814.814,0,0,1-.664.932,35.169,35.169,0,0,1-5.74.495c-7.886,0-14.152-2.985-19.537-7.51-5.384,4.525-11.651,7.51-19.536,7.51a34.224,34.224,0,0,1-5.74-.495.814.814,0,0,1-.664-.932.8.8,0,0,1,.932-.665c9.926,1.662,17.439-1.33,23.738-6.53-5.473-4.972-10.048-11.484-14.557-17.907-11.254-16.042-21.884-31.2-45.227-18.5a.809.809,0,0,1-1.1-.325.5.5,0,0,0-.016-.057c-.008-.008-.024-.015-.032-.024a.8.8,0,0,1,.154-1.135c15.48-11.76,14.355-24.307,9.594-37.495-13.772,2.466-25.188,7.762-27.617,27.073a.806.806,0,0,1-.8.714c-.04,0-.073-.008-.105-.008-.016-.008-.024-.016-.04-.016s-.032.008-.049.008h-.024a.808.808,0,0,1-.81-.787c-.558-21.444-12.638-26.668-27.519-28.8-5.594,13.974-7.117,27.065,11.141,38.273a.817.817,0,0,1,.266,1.12.217.217,0,0,0-.041.049c-.008.008,0,.024-.008.032a.811.811,0,0,1-1.06.43c-17.9-7.551-28.192-.3-37.211,10.422,9.02,10.722,19.3,17.972,37.211,10.421a.805.805,0,0,1,1.06.43c.008.008,0,.024.008.041s.024.024.032.04a.816.816,0,0,1-.266,1.12c-22.646,13.893-14.857,30.7-6.615,48.484,3.295,7.122,6.638,14.348,8.2,21.582,7.651-2.863,13.99-7.891,17.512-17.332a.812.812,0,1,1,1.522.568c-3.789,10.163-10.581,15.45-18.71,18.411,1.506,8.532.323,17.064-6.566,25.434a.8.8,0,0,1-.624.292.831.831,0,0,1-.518-.187.82.82,0,0,1-.105-1.143c6.4-7.778,7.571-15.8,6.226-23.861-7.027,2.263-14.953,2.976-22.759,3.674-19.5,1.743-37.923,3.39-38.612,29.984a.813.813,0,0,1-.809.787h-.024c-.016,0-.032-.008-.049-.008s-.024.016-.04.016a.493.493,0,0,1-.105.008.806.806,0,0,1-.8-.714c-2.428-19.311-13.837-24.607-27.617-27.073-4.761,13.188-5.886,25.735,9.594,37.495a.813.813,0,0,1,.154,1.136c-.008.007-.024.015-.032.023a.477.477,0,0,1-.016.058.821.821,0,0,1-1.1.324c-23.342-12.7-33.973,2.458-45.227,18.5-4.5,6.423-9.085,12.936-14.558,17.907,6.3,5.2,13.812,8.192,23.738,6.521a.8.8,0,0,1,.932.665.814.814,0,0,1-.664.932,35.168,35.168,0,0,1-5.74.495c-7.886,0-14.152-2.985-19.536-7.51-5.385,4.525-11.651,7.51-19.537,7.51a34.225,34.225,0,0,1-5.74-.495.814.814,0,0,1-.664-.932.8.8,0,0,1,.932-.665c9.926,1.662,17.439-1.33,23.738-6.53-5.473-4.972-10.048-11.484-14.557-17.907-11.254-16.042-21.884-31.2-45.227-18.5a.817.817,0,0,1-1.1-.325.581.581,0,0,0-.016-.057c-.008-.008-.024-.015-.032-.024a.8.8,0,0,1,.154-1.135c15.48-11.76,14.355-24.307,9.594-37.495-13.772,2.466-25.187,7.762-27.617,27.073a.806.806,0,0,1-.8.714c-.041,0-.073-.008-.105-.008-.016-.008-.024-.016-.04-.016s-.032.008-.049.008H323.8a.807.807,0,0,1-.809-.787c-.7-26.594-19.116-28.241-38.612-29.984-7.806-.7-15.724-1.411-22.759-3.675-1.353,8.07-.178,16.084,6.226,23.862a.8.8,0,0,1-.105,1.143.843.843,0,0,1-.518.187.8.8,0,0,1-.624-.292c-6.9-8.37-8.072-16.9-6.565-25.434-8.138-2.961-14.922-8.249-18.711-18.411a.812.812,0,1,1,1.522-.568c3.522,9.449,9.869,14.469,17.512,17.332,1.555-7.234,4.9-14.46,8.2-21.582,8.25-17.786,16.031-34.583-6.614-48.484a.817.817,0,0,1-.267-1.12c.008-.016.024-.024.032-.041s0-.024.008-.04a.809.809,0,0,1,1.06-.43c17.9,7.551,28.192.3,37.211-10.422-9.02-10.722-19.3-17.972-37.211-10.421a.808.808,0,0,1-1.06-.43.049.049,0,0,1-.008-.032.215.215,0,0,1-.04-.049.815.815,0,0,1,.267-1.12c18.266-11.209,16.735-24.3,11.14-38.273-14.882,2.134-26.961,7.357-27.519,28.8a.814.814,0,0,1-.81.787h-.024c-.016,0-.032-.008-.049-.008s-.024.016-.041.016a.5.5,0,0,1-.105.008.8.8,0,0,1-.8-.714c-2.429-19.311-13.837-24.607-27.617-27.073-4.761,13.188-5.886,25.735,9.594,37.495a.812.812,0,0,1,.154,1.135c-.008.008-.024.017-.032.024-.008.024-.008.04-.016.057a.821.821,0,0,1-1.1.324c-23.342-12.7-33.973,2.457-45.227,18.5-4.5,6.423-9.085,12.936-14.557,17.907,6.3,5.2,13.812,8.192,23.738,6.521a.8.8,0,0,1,.932.664.815.815,0,0,1-.664.933,35.181,35.181,0,0,1-5.74.495c-7.886,0-14.152-2.985-19.536-7.51-5.385,4.525-11.651,7.51-19.537,7.51a34.238,34.238,0,0,1-5.74-.495.815.815,0,0,1-.664-.933.8.8,0,0,1,.932-.664c9.926,1.662,17.439-1.33,23.738-6.53-5.473-4.972-10.048-11.484-14.558-17.907-11.254-16.043-21.884-31.2-45.226-18.5a.81.81,0,0,1-1.1-.325.441.441,0,0,0-.016-.056c-.008-.009-.024-.017-.032-.025a.8.8,0,0,1,.154-1.135c15.481-11.76,14.355-24.307,9.594-37.495-13.772,2.465-25.187,7.762-27.617,27.073a.806.806,0,0,1-.8.714c-.041,0-.073-.008-.105-.008-.016-.008-.024-.016-.041-.016s-.032.008-.049.008h-.024a.808.808,0,0,1-.809-.787c-.7-26.594-19.116-28.241-38.612-29.984-7.8-.7-15.724-1.411-22.759-3.675-1.352,8.07-.178,16.083,6.226,23.862a.8.8,0,0,1-.105,1.143.848.848,0,0,1-.518.187.8.8,0,0,1-.624-.292c-6.9-8.37-8.072-16.9-6.566-25.434-8.137-2.961-14.922-8.248-18.711-18.411a.812.812,0,1,1,1.522-.568c3.522,9.449,9.869,14.469,17.513,17.332,1.554-7.234,4.9-14.46,8.2-21.582,8.25-17.786,16.032-34.582-6.614-48.484a.817.817,0,0,1-.267-1.12c.008-.016.024-.024.032-.04s0-.024.008-.041a.809.809,0,0,1,1.06-.43c17.9,7.551,28.192.3,37.211-10.422-9.019-10.714-19.3-17.972-37.211-10.421a.8.8,0,0,1-1.06-.43.049.049,0,0,1-.008-.032.212.212,0,0,1-.041-.049.815.815,0,0,1,.267-1.12c22.646-13.9,14.856-30.7,6.614-48.484-3.295-7.122-6.647-14.348-8.2-21.582-7.644,2.863-13.991,7.891-17.513,17.332a.812.812,0,0,1-.761.526.87.87,0,0,1-.283-.049.817.817,0,0,1-.478-1.046c3.789-10.163,10.582-15.45,18.711-18.411-1.507-8.532-.324-17.064,6.566-25.434a.811.811,0,1,1,1.247,1.038c-6.4,7.778-7.57,15.8-6.226,23.862,7.027-2.264,14.954-2.977,22.759-3.675,19.5-1.743,37.923-3.39,38.612-29.984a.788.788,0,0,1,.833-.787c.016,0,.032.008.049.008s.024-.016.04-.016a.818.818,0,0,1,.907.706c2.429,19.311,13.837,24.607,27.617,27.073,4.761-13.18,5.887-25.735-9.594-37.495a.812.812,0,0,1-.154-1.135c.008-.008.024-.016.032-.024s.008-.032.016-.049a.822.822,0,0,1,1.1-.325c18.815,10.236,29.365,2.368,38.652-9.473-9.279-11.841-19.837-19.708-38.652-9.472a.817.817,0,0,1-1.1-.325c-.008-.016-.008-.041-.016-.057s-.024-.016-.032-.024a.8.8,0,0,1,.154-1.135c15.481-11.76,14.355-24.307,9.594-37.495C97.418,965.884,86,971.18,83.573,990.491a.806.806,0,0,1-.8.714.427.427,0,0,1-.105-.008c-.016-.008-.024-.016-.04-.016s-.032.008-.049.008h-.024a.808.808,0,0,1-.809-.787c-.7-26.6-19.116-28.241-38.612-29.984-7.8-.7-15.724-1.411-22.759-3.675-1.352,8.07-.178,16.083,6.226,23.862a.811.811,0,0,1-1.247,1.038c-6.9-8.37-8.072-16.9-6.566-25.434C10.649,953.248,3.864,947.96.075,937.8a.812.812,0,1,1,1.522-.568c3.522,9.441,9.869,14.469,17.513,17.332,1.554-7.234,4.9-14.461,8.2-21.582C35.561,915.194,43.342,898.4,20.7,884.5a.817.817,0,0,1-.267-1.12c.008-.016.024-.024.032-.04s0-.024.008-.041a.809.809,0,0,1,1.06-.43c17.91,7.551,28.193.3,37.211-10.422-9.019-10.722-19.3-17.972-37.211-10.422a.8.8,0,0,1-1.06-.429.049.049,0,0,1-.008-.032.215.215,0,0,1-.04-.049.815.815,0,0,1,.267-1.12c22.646-13.9,14.856-30.7,6.615-48.484-3.3-7.122-6.647-14.348-8.2-21.582-7.644,2.863-13.991,7.891-17.513,17.331a.811.811,0,0,1-.761.527.868.868,0,0,1-.283-.049.817.817,0,0,1-.478-1.046c3.789-10.163,10.582-15.45,18.711-18.411-1.507-8.532-.324-17.064,6.566-25.434a.811.811,0,1,1,1.247,1.038c-6.4,7.778-7.57,15.8-6.226,23.861,7.027-2.263,14.954-2.976,22.759-3.674,19.5-1.743,37.923-3.39,38.612-29.984a.788.788,0,0,1,.833-.787c.016,0,.032.008.049.008s.024-.016.04-.016a.818.818,0,0,1,.907.706C85.994,773.707,97.4,779,111.182,781.468c4.761-13.18,5.887-25.735-9.594-37.495a.812.812,0,0,1-.154-1.135c.008-.008.024-.016.032-.024s.008-.033.016-.049a.822.822,0,0,1,1.1-.324c18.815,10.236,29.365,2.368,38.652-9.473-9.279-11.841-19.837-19.708-38.652-9.473a.81.81,0,0,1-1.1-.325c-.008-.016-.008-.04-.016-.057s-.024-.016-.032-.024a.8.8,0,0,1,.154-1.135c15.481-11.76,14.355-24.307,9.594-37.495-13.772,2.465-25.187,7.762-27.617,27.073a.806.806,0,0,1-.8.714.427.427,0,0,1-.105-.008c-.016-.008-.024-.016-.04-.016s-.032.008-.049.008h-.024a.808.808,0,0,1-.809-.787c-.7-26.595-19.116-28.241-38.612-29.985-7.8-.7-15.724-1.411-22.759-3.674-1.352,8.07-.178,16.083,6.226,23.861a.812.812,0,0,1-1.247,1.039c-6.9-8.37-8.072-16.9-6.566-25.435C10.641,674.288,3.856,669,.067,658.838a.812.812,0,1,1,1.522-.568C5.11,667.711,11.458,672.739,19.1,675.6c1.554-7.234,4.9-14.461,8.2-21.582,8.249-17.786,16.031-34.583-6.615-48.484a.817.817,0,0,1-.267-1.12c.008-.016.024-.024.032-.041s0-.024.008-.04a.809.809,0,0,1,1.06-.43c17.91,7.551,28.193.3,37.211-10.422-9.019-10.722-19.3-17.972-37.211-10.422a.8.8,0,0,1-1.06-.429.049.049,0,0,1-.008-.032.215.215,0,0,1-.04-.049.815.815,0,0,1,.267-1.12c22.646-13.9,14.856-30.7,6.615-48.484-3.3-7.122-6.647-14.348-8.2-21.582C11.45,514.229,5.1,519.257,1.58,528.7a.811.811,0,0,1-.761.527.868.868,0,0,1-.283-.049.817.817,0,0,1-.478-1.046c3.789-10.163,10.582-15.451,18.711-18.411-1.507-8.532-.324-17.064,6.566-25.434a.811.811,0,1,1,1.247,1.038c-6.4,7.778-7.57,15.8-6.226,23.861,7.027-2.263,14.954-2.976,22.759-3.674,19.5-1.743,37.923-3.39,38.612-29.984a.793.793,0,0,1,.833-.787c.016,0,.032.008.049.008s.024-.016.041-.016a.812.812,0,0,1,.907.706c2.429,19.311,13.837,24.607,27.617,27.073,4.761-13.18,5.887-25.735-9.594-37.495a.813.813,0,0,1-.154-1.136c.008-.007.024-.016.032-.024s.008-.032.016-.049a.822.822,0,0,1,1.1-.324c18.815,10.236,29.365,2.368,38.652-9.473-9.279-11.841-19.837-19.708-38.652-9.473a.817.817,0,0,1-1.1-.325c-.008-.016-.008-.04-.016-.057s-.024-.016-.032-.024a.806.806,0,0,1,.154-1.136c15.481-11.759,14.355-24.306,9.594-37.494-13.772,2.465-25.187,7.762-27.617,27.073a.806.806,0,0,1-.8.714.429.429,0,0,1-.105-.008c-.016-.008-.024-.016-.041-.016s-.032.008-.049.008h-.024a.808.808,0,0,1-.809-.787c-.7-26.594-19.116-28.24-38.612-29.984-7.8-.7-15.724-1.411-22.759-3.674-1.352,8.07-.178,16.083,6.226,23.861a.812.812,0,0,1-1.247,1.039c-6.9-8.37-8.072-16.9-6.566-25.435-8.137-2.96-14.922-8.248-18.711-18.41a.812.812,0,1,1,1.522-.568c3.522,9.441,9.869,14.469,17.513,17.332,1.554-7.234,4.9-14.461,8.2-21.582,8.249-17.786,16.031-34.583-6.615-48.484a.817.817,0,0,1-.267-1.12c.008-.016.024-.024.032-.041s0-.024.008-.04a.816.816,0,0,1,1.06-.43c17.91,7.551,28.192.3,37.211-10.422-9.019-10.722-19.3-17.973-37.211-10.422a.8.8,0,0,1-1.06-.429.049.049,0,0,1-.008-.032.215.215,0,0,1-.041-.049.815.815,0,0,1,.267-1.12c22.646-13.9,14.856-30.7,6.615-48.485-3.3-7.121-6.647-14.347-8.2-21.582-7.644,2.864-13.991,7.884-17.513,17.332a.811.811,0,0,1-.761.527.868.868,0,0,1-.283-.049A.817.817,0,0,1,.05,249.17c3.789-10.163,10.582-15.451,18.711-18.411-1.507-8.532-.324-17.064,6.566-25.434a.811.811,0,1,1,1.247,1.038c-6.4,7.778-7.57,15.8-6.226,23.861,7.027-2.263,14.954-2.976,22.759-3.674,19.5-1.743,37.923-3.39,38.612-29.984a.8.8,0,0,1,.833-.787c.016,0,.032.008.049.008s.024-.016.04-.016a.812.812,0,0,1,.907.706c2.429,19.311,13.837,24.607,27.617,27.073,4.761-13.18,5.887-25.735-9.594-37.495a.813.813,0,0,1-.154-1.136c.008-.008.024-.016.032-.024s.008-.032.016-.049a.822.822,0,0,1,1.1-.324c23.341,12.7,33.972-2.458,45.226-18.5,4.5-6.423,9.085-12.936,14.557-17.907-6.3-5.207-13.812-8.2-23.738-6.53a.81.81,0,0,1-.267-1.6c10.671-1.8,18.638,1.452,25.269,7.024,6.622-5.572,14.59-8.816,25.268-7.024a.81.81,0,0,1-.267,1.6c-9.918-1.67-17.439,1.33-23.738,6.53,5.473,4.972,10.056,11.484,14.557,17.907,11.254,16.042,21.884,31.2,45.227,18.5a.817.817,0,0,1,1.1.324c.008.016.008.032.016.049s.024.016.032.024a.806.806,0,0,1-.154,1.136c-15.48,11.76-14.355,24.307-9.594,37.495,13.772-2.466,25.188-7.762,27.617-27.073a.815.815,0,0,1,.906-.706c.016.008.024.016.041.016s.032-.008.049-.008a.807.807,0,0,1,.834.787c.558,21.444,12.638,26.667,27.519,28.8,5.594-13.974,7.117-27.064-11.14-38.273a.816.816,0,0,1-.267-1.119c.008-.016.024-.024.032-.04s0-.024.008-.04a.8.8,0,0,1,1.06-.43c17.9,7.551,28.192.3,37.211-10.422-9.02-10.722-19.3-17.973-37.211-10.422a.8.8,0,0,1-1.06-.429.049.049,0,0,1-.008-.032.215.215,0,0,1-.04-.049.815.815,0,0,1,.267-1.12c22.646-13.9,14.856-30.7,6.614-48.485-3.295-7.121-6.647-14.347-8.2-21.582-7.643,2.864-13.991,7.884-17.512,17.332a.811.811,0,0,1-.761.527.869.869,0,0,1-.284-.049.818.818,0,0,1-.477-1.047c3.789-10.162,10.581-15.45,18.711-18.41-1.507-8.532-.324-17.064,6.566-25.434a.811.811,0,1,1,1.247,1.038c-6.4,7.778-7.571,15.8-6.226,23.861,7.027-2.263,14.954-2.976,22.759-3.674,19.5-1.743,37.923-3.39,38.612-29.984a.8.8,0,0,1,.833-.787c.016,0,.032.008.049.008s.024-.016.04-.016a.812.812,0,0,1,.907.706C327.187,76.3,338.594,81.6,352.374,84.065c4.761-13.18,5.886-25.735-9.594-37.495a.813.813,0,0,1-.154-1.136c.008-.008.024-.016.032-.024s.008-.032.016-.049a.821.821,0,0,1,1.1-.324c23.334,12.7,33.973-2.458,45.227-18.5,4.5-6.423,9.085-12.936,14.557-17.907-6.3-5.207-13.812-8.2-23.738-6.53a.81.81,0,0,1-.267-1.6c10.679-1.8,18.638,1.452,25.269,7.024C411.446,1.955,419.413-1.29,430.092.5a.81.81,0,0,1-.267,1.6c-9.934-1.678-17.447,1.322-23.746,6.521,5.473,4.964,10.048,11.484,14.557,17.907,11.254,16.042,21.884,31.2,45.227,18.5a.816.816,0,0,1,1.1.324c.008.016.008.032.016.049s.024.016.032.024a.806.806,0,0,1-.154,1.136c-15.48,11.76-14.355,24.307-9.594,37.495,13.772-2.466,25.188-7.762,27.616-27.073a.816.816,0,0,1,.907-.706c.016.008.024.016.041.016s.032-.008.049-.008a.807.807,0,0,1,.833.787c.7,26.594,19.116,28.241,38.613,29.984,7.8.7,15.723,1.411,22.758,3.674,1.353-8.069.178-16.083-6.226-23.861a.811.811,0,1,1,1.247-1.038c6.9,8.37,8.072,16.9,6.566,25.434,8.137,2.96,14.921,8.248,18.71,18.41a.815.815,0,0,1-.477,1.047.869.869,0,0,1-.284.049.811.811,0,0,1-.761-.527c-3.522-9.44-9.869-14.468-17.512-17.332-1.554,7.235-4.9,14.461-8.2,21.582-8.25,17.787-16.031,34.583,6.615,48.485a.817.817,0,0,1,.266,1.12.216.216,0,0,0-.041.049c-.008.008,0,.024-.008.032a.818.818,0,0,1-1.06.429c-17.909-7.551-28.192-.3-37.211,10.422,9.02,10.715,19.3,17.973,37.211,10.422a.8.8,0,0,1,1.06.43c.008.016,0,.024.008.04s.024.024.032.041a.815.815,0,0,1-.266,1.119c-18.266,11.21-16.736,24.3-11.141,38.273,14.881-2.133,26.961-7.356,27.52-28.8a.807.807,0,0,1,.833-.787c.016,0,.032.008.049.008s.024-.016.041-.016a.812.812,0,0,1,.907.706c2.428,19.311,13.837,24.607,27.616,27.073,4.761-13.18,5.886-25.735-9.594-37.495a.813.813,0,0,1-.154-1.136c.008-.008.024-.016.032-.024s.008-.032.016-.049a.818.818,0,0,1,1.1-.324c23.342,12.7,33.973-2.458,45.227-18.5,4.51-6.423,9.085-12.936,14.557-17.907-6.3-5.207-13.812-8.2-23.738-6.529a.81.81,0,0,1-.267-1.6c10.679-1.8,18.638,1.452,25.268,7.024,6.623-5.572,14.59-8.816,25.269-7.024a.81.81,0,0,1-.267,1.6c-9.918-1.67-17.439,1.33-23.738,6.529,5.473,4.972,10.056,11.484,14.557,17.907,11.254,16.042,21.884,31.2,45.227,18.5a.816.816,0,0,1,1.1.324c.008.016.008.032.016.049s.024.016.032.024a.806.806,0,0,1-.154,1.136c-15.48,11.76-14.355,24.307-9.594,37.495,13.772-2.466,25.187-7.762,27.617-27.073a.816.816,0,0,1,.907-.706c.016.008.024.016.04.016s.032-.008.049-.008a.8.8,0,0,1,.833.787c.559,21.444,12.639,26.667,27.52,28.8,5.594-13.974,7.116-27.064-11.141-38.273a.816.816,0,0,1-.267-1.119c.008-.016.024-.024.032-.041s0-.024.008-.04a.8.8,0,0,1,1.061-.43c17.9,7.551,28.192.3,37.211-10.422-9.02-10.722-19.3-17.973-37.211-10.422a.8.8,0,0,1-1.061-.429.049.049,0,0,1-.008-.032.215.215,0,0,1-.04-.049.815.815,0,0,1,.267-1.12c22.646-13.9,14.857-30.7,6.615-48.485-3.295-7.121-6.647-14.347-8.2-21.582-7.651,2.864-13.991,7.884-17.512,17.332a.811.811,0,0,1-.761.527.87.87,0,0,1-.284-.049.818.818,0,0,1-.478-1.047c3.789-10.162,10.582-15.45,18.711-18.41-1.506-8.532-.324-17.064,6.566-25.434a.811.811,0,1,1,1.247,1.038c-6.4,7.778-7.57,15.8-6.226,23.861,7.028-2.263,14.954-2.976,22.759-3.674,19.5-1.743,37.916-3.39,38.6-29.984a.812.812,0,0,1,.834-.787c.016,0,.032.008.049.008s.024-.016.041-.016a.812.812,0,0,1,.907.706C809.588,76.3,821,81.591,834.776,84.057c4.761-13.188,5.886-25.735-9.594-37.495a.813.813,0,0,1-.154-1.136c.008-.008.024-.016.032-.024s.008-.032.016-.049a.818.818,0,0,1,1.1-.324c23.334,12.7,33.972-2.458,45.227-18.5,4.51-6.423,9.085-12.936,14.557-17.907-6.3-5.207-13.82-8.2-23.739-6.529a.81.81,0,0,1-.266-1.6C872.635-1.3,880.6,1.947,887.225,7.519,893.848,1.947,901.814-1.3,912.494.5a.81.81,0,0,1-.267,1.6C902.3.422,894.787,3.415,888.488,8.614c5.473,4.964,10.048,11.484,14.557,17.907,11.254,16.043,21.884,31.2,45.226,18.5a.817.817,0,0,1,1.1.324c.008.016.008.032.016.049s.024.016.032.024a.806.806,0,0,1-.154,1.136c-15.481,11.76-14.355,24.307-9.594,37.495,13.772-2.466,25.187-7.762,27.617-27.073a.812.812,0,0,1,.907-.706c.016.008.024.016.041.016s.032-.008.049-.008h.024a.807.807,0,0,1,.809.787c.689,26.594,19.108,28.241,38.6,29.984,7.8.7,15.724,1.411,22.759,3.674,1.353-8.069.178-16.083-6.226-23.861a.811.811,0,1,1,1.246-1.038c6.9,8.362,8.073,16.9,6.566,25.434,8.129,2.96,14.914,8.248,18.7,18.41a.815.815,0,0,1-.478,1.047.865.865,0,0,1-.283.049.811.811,0,0,1-.761-.527c-3.522-9.44-9.869-14.468-17.513-17.332-1.554,7.235-4.9,14.461-8.2,21.582-8.249,17.787-16.031,34.583,6.615,48.485a.817.817,0,0,1,.267,1.12.216.216,0,0,0-.04.049c-.008.008,0,.024-.008.032a.812.812,0,0,1-1.06.429c-17.9-7.551-28.192-.3-37.211,10.422,9.02,10.714,19.3,17.973,37.211,10.422a.8.8,0,0,1,1.06.43c.008.016,0,.024.008.041s.024.024.032.04a.814.814,0,0,1-.267,1.119c-18.257,11.21-16.727,24.3-11.132,38.273,14.881-2.133,26.96-7.356,27.519-28.8a.813.813,0,0,1,.81-.787h.024c.016,0,.032.008.049.008s.024-.016.041-.016a.811.811,0,0,1,.906.706c2.429,19.311,13.837,24.607,27.617,27.073,4.76-13.18,5.886-25.735-9.595-37.495a.814.814,0,0,1-.153-1.136c.008-.008.024-.016.032-.024s.008-.032.016-.049a.818.818,0,0,1,1.1-.324c23.342,12.7,33.972-2.458,45.227-18.5,4.51-6.423,9.084-12.936,14.557-17.907-6.3-5.2-13.813-8.192-23.739-6.521a.8.8,0,0,1-.931-.665.814.814,0,0,1,.664-.932c10.679-1.793,18.645,1.452,25.268,7.024,6.623-5.572,14.59-8.816,25.269-7.024a.81.81,0,0,1-.267,1.6c-9.926-1.67-17.44,1.322-23.738,6.521,5.473,4.964,10.047,11.484,14.557,17.907,11.255,16.042,21.893,31.2,45.227,18.5a.817.817,0,0,1,1.1.324c.008.016.008.032.016.049s.024.016.032.024a.806.806,0,0,1-.154,1.136c-15.481,11.76-14.355,24.307-9.595,37.495,13.773-2.466,25.188-7.762,27.617-27.073a.811.811,0,0,1,.906-.706c.017.008.024.016.04.016s.032-.008.049-.008a.8.8,0,0,1,.834.787c.688,26.594,19.108,28.241,38.6,29.984,7.8.7,15.723,1.411,22.759,3.674,1.352-8.069.178-16.083-6.226-23.861a.811.811,0,1,1,1.246-1.038c6.9,8.37,8.072,16.9,6.566,25.434,8.137,2.96,14.922,8.249,18.711,18.41a.815.815,0,0,1-.478,1.047.87.87,0,0,1-.284.049.811.811,0,0,1-.76-.527c-3.522-9.44-9.869-14.468-17.513-17.332-1.554,7.235-4.9,14.461-8.2,21.582-8.25,17.787-16.031,34.583,6.615,48.485a.817.817,0,0,1,.267,1.12.216.216,0,0,0-.04.049c-.008.008,0,.024-.008.032a.812.812,0,0,1-1.061.429c-17.909-7.551-28.192-.3-37.211,10.422,9.019,10.714,19.3,17.973,37.211,10.422a.8.8,0,0,1,1.061.43c.008.016,0,.024.008.041s.024.024.032.04a.815.815,0,0,1-.267,1.12c-22.646,13.9-14.857,30.7-6.615,48.484,3.3,7.121,6.647,14.348,8.2,21.582,7.644-2.863,13.99-7.883,17.513-17.332a.812.812,0,1,1,1.522.568c-3.789,10.163-10.574,15.45-18.492,18.459,1.506,8.533.324,17.065-6.566,25.435a.8.8,0,0,1-.623.292.83.83,0,0,1-.518-.186.819.819,0,0,1-.105-1.144c6.4-7.778,7.57-15.8,6.226-23.861-7.036,2.263-14.954,2.976-22.759,3.674-19.5,1.744-37.915,3.39-38.6,29.984a.814.814,0,0,1-.81.788h-.024c-.016,0-.032-.008-.049-.008s-.024.016-.041.016a.5.5,0,0,1-.105.008.806.806,0,0,1-.8-.714c-2.429-19.311-13.837-24.608-27.617-27.073-4.76,13.188-5.886,25.735,9.595,37.495a.812.812,0,0,1,.153,1.135c-.007.008-.023.016-.031.024s-.008.04-.016.057a.82.82,0,0,1-1.1.325c-18.808-10.236-29.365-2.369-38.652,9.473,9.279,11.841,19.836,19.709,38.652,9.473a.818.818,0,0,1,1.1.324c.008.016.008.033.016.049s.024.016.031.024a.806.806,0,0,1-.153,1.136c-15.481,11.76-14.355,24.307-9.595,37.495,13.773-2.466,25.188-7.762,27.617-27.073a.811.811,0,0,1,.906-.706c.016.008.024.016.041.016s.032-.008.049-.008a.8.8,0,0,1,.834.787c.688,26.594,19.108,28.241,38.6,29.984,7.8.7,15.723,1.411,22.759,3.674,1.352-8.069.178-16.083-6.226-23.861a.811.811,0,1,1,1.246-1.038c6.9,8.37,8.072,16.9,6.566,25.434,8.137,2.96,14.922,8.249,18.711,18.411a.814.814,0,0,1-.478,1.046.869.869,0,0,1-.283.049.81.81,0,0,1-.76-.527c-3.523-9.44-9.87-14.468-17.513-17.331-1.554,7.234-4.9,14.46-8.2,21.582-8.25,17.786-16.031,34.582,6.615,48.484a.817.817,0,0,1,.267,1.12.213.213,0,0,0-.041.049c-.008.008,0,.024-.008.032a.812.812,0,0,1-1.061.429c-17.909-7.55-28.192-.3-37.21,10.422,9.019,10.714,19.3,17.973,37.21,10.422a.8.8,0,0,1,1.061.43c.008.016,0,.024.008.04s.024.024.032.041a.815.815,0,0,1-.267,1.12c-22.646,13.9-14.857,30.7-6.615,48.484,3.3,7.121,6.647,14.348,8.2,21.582,7.643-2.863,13.99-7.883,17.513-17.332a.812.812,0,1,1,1.522.568c-3.789,10.163-10.582,15.45-18.711,18.411,1.506,8.532.324,17.064-6.566,25.434a.8.8,0,0,1-.623.292.831.831,0,0,1-.518-.186.818.818,0,0,1-.105-1.143c6.4-7.779,7.57-15.8,6.226-23.862-7.036,2.263-14.954,2.977-22.759,3.675-19.5,1.743-37.916,3.389-38.6,29.984a.814.814,0,0,1-.81.787h-.024c-.016,0-.032-.008-.049-.008s-.024.016-.041.016a.5.5,0,0,1-.105.008.806.806,0,0,1-.8-.714c-2.429-19.311-13.837-24.608-27.617-27.073-4.76,13.188-5.886,25.735,9.595,37.495a.813.813,0,0,1,.154,1.135c-.008.008-.024.016-.032.024s-.008.041-.016.057a.819.819,0,0,1-1.1.325c-18.808-10.236-29.365-2.369-38.652,9.473,9.278,11.841,19.836,19.709,38.652,9.473a.817.817,0,0,1,1.1.325c.008.016.008.032.016.049s.024.016.032.024a.8.8,0,0,1-.154,1.135c-15.481,11.76-14.355,24.307-9.595,37.495,13.773-2.466,25.188-7.762,27.617-27.073a.812.812,0,0,1,.906-.706c.016.008.024.016.041.016s.032-.008.049-.008a.8.8,0,0,1,.834.787c.688,26.594,19.108,28.241,38.6,29.984,7.8.7,15.723,1.411,22.759,3.675,1.352-8.07.178-16.084-6.226-23.862a.811.811,0,1,1,1.246-1.038c6.9,8.362,8.072,16.9,6.566,25.434,8.137,2.961,14.922,8.249,18.711,18.411a.814.814,0,0,1-.478,1.046.87.87,0,0,1-.284.049.811.811,0,0,1-.76-.527c-3.523-9.441-9.87-14.469-17.513-17.332-1.554,7.234-4.9,14.46-8.2,21.582-8.25,17.786-16.031,34.583,6.615,48.484a.817.817,0,0,1,.267,1.12.215.215,0,0,0-.04.049c-.008.008,0,.024-.008.032a.812.812,0,0,1-1.061.43c-17.909-7.551-28.192-.3-37.211,10.421,9.019,10.714,19.3,17.973,37.211,10.422a.8.8,0,0,1,1.061.43c.008.016,0,.024.008.041s.024.024.032.04a.815.815,0,0,1-.267,1.12c-22.646,13.9-14.857,30.7-6.615,48.484,3.3,7.121,6.647,14.348,8.2,21.582,7.643-2.863,13.99-7.883,17.513-17.332a.812.812,0,1,1,1.522.568c-3.789,10.163-10.582,15.45-18.711,18.411,1.506,8.532.324,17.064-6.566,25.434a.8.8,0,0,1-.623.292.831.831,0,0,1-.518-.186.818.818,0,0,1-.105-1.143c6.4-7.779,7.57-15.8,6.226-23.862-7.036,2.263-14.954,2.977-22.759,3.675-19.5,1.743-37.916,3.39-38.6,29.984a.814.814,0,0,1-.81.787h-.024c-.016,0-.032-.008-.049-.008s-.024.016-.041.016a.5.5,0,0,1-.105.008.806.806,0,0,1-.8-.714c-2.429-19.311-13.837-24.608-27.617-27.073-4.76,13.188-5.886,25.735,9.595,37.495a.814.814,0,0,1,.154,1.135c-.008.008-.024.016-.032.024s-.008.04-.016.058a.82.82,0,0,1-1.1.324c-18.808-10.236-29.366-2.368-38.652,9.472,9.279,11.841,19.836,19.709,38.652,9.473a.817.817,0,0,1,1.1.325c.008.016.008.032.016.049s.024.016.032.024a.806.806,0,0,1-.154,1.135c-15.481,11.76-14.355,24.307-9.595,37.495,13.772-2.465,25.188-7.762,27.617-27.073a.812.812,0,0,1,.906-.706c.016.008.024.016.041.016s.032-.008.049-.008a.793.793,0,0,1,.834.787c.688,26.595,19.108,28.241,38.6,29.984,7.8.7,15.723,1.411,22.759,3.675,1.352-8.07.178-16.083-6.226-23.862a.811.811,0,1,1,1.247-1.038c6.9,8.362,8.072,16.9,6.566,25.434,8.137,2.961,14.922,8.249,18.711,18.411a.814.814,0,0,1-.478,1.046.867.867,0,0,1-.283.049.811.811,0,0,1-.76-.527c-3.523-9.441-9.87-14.469-17.513-17.332-1.554,7.234-4.9,14.461-8.2,21.582-8.25,17.786-16.031,34.583,6.615,48.484a.817.817,0,0,1,.267,1.12.213.213,0,0,0-.041.049c-.008.008,0,.024-.008.032a.812.812,0,0,1-1.061.43c-17.909-7.551-28.192-.3-37.21,10.422,9.019,10.722,19.3,17.972,37.21,10.422a.8.8,0,0,1,1.061.429c.008.008,0,.024.008.041s.024.024.032.041a.815.815,0,0,1-.267,1.12c-22.646,13.9-14.857,30.7-6.615,48.484,3.3,7.122,6.647,14.348,8.2,21.582,7.644-2.863,13.99-7.891,17.513-17.332a.812.812,0,1,1,1.522.568c-3.789,10.163-10.582,15.45-18.711,18.411,1.506,8.532.324,17.064-6.566,25.434a.8.8,0,0,1-.623.292.826.826,0,0,1-.518-.187.818.818,0,0,1-.105-1.143c6.4-7.779,7.57-15.8,6.226-23.862-7.036,2.264-14.954,2.977-22.759,3.675-19.5,1.743-37.915,3.39-38.6,29.984a.808.808,0,0,1-.81.786h-.024c-.016,0-.032-.008-.049-.008s-.024.016-.041.016a.5.5,0,0,1-.1.008.806.806,0,0,1-.8-.714c-2.429-19.311-13.837-24.607-27.617-27.073-4.76,13.188-5.886,25.735,9.595,37.495a.813.813,0,0,1,.154,1.135c-.008.008-.024.016-.032.024s-.008.04-.016.057a.82.82,0,0,1-1.1.324c-23.333-12.7-33.972,2.457-45.227,18.5-4.5,6.424-9.084,12.937-14.557,17.908,6.3,5.207,13.813,8.2,23.739,6.529a.8.8,0,0,1,.931.664.815.815,0,0,1-.663.933,35.169,35.169,0,0,1-5.741.495c-7.886,0-14.152-2.985-19.536-7.51-5.384,4.525-11.651,7.51-19.536,7.51a34.237,34.237,0,0,1-5.741-.495.815.815,0,0,1-.663-.933.8.8,0,0,1,.931-.664c9.926,1.662,17.44-1.33,23.739-6.529-5.474-4.972-10.056-11.484-14.558-17.908-11.254-16.043-21.884-31.2-45.227-18.5a.817.817,0,0,1-1.1-.324c-.009-.024-.009-.041-.017-.057s-.023-.016-.032-.024a.806.806,0,0,1,.153-1.135c15.481-11.76,14.355-24.307,9.595-37.495-13.772,2.466-25.188,7.762-27.617,27.073a.806.806,0,0,1-.8.714c-.041,0-.073-.008-.105-.008-.016-.008-.024-.016-.041-.016s-.032.008-.049.008h-.024a.808.808,0,0,1-.81-.786c-.559-21.444-12.639-26.667-27.519-28.8-5.6,13.975-7.125,27.065,11.132,38.273a.817.817,0,0,1,.267,1.12.215.215,0,0,0-.04.049c-.008.008,0,.024-.008.032a.812.812,0,0,1-1.06.43c-17.9-7.551-28.193-.3-37.211,10.421,9.019,10.723,19.3,17.973,37.211,10.423a.8.8,0,0,1,1.06.429c.008.008,0,.024.008.04s.024.024.032.041a.815.815,0,0,1-.267,1.12c-22.646,13.9-14.857,30.7-6.615,48.484,3.3,7.122,6.647,14.348,8.2,21.582,7.644-2.863,13.99-7.891,17.513-17.332a.812.812,0,1,1,1.522.568c-3.781,10.163-10.574,15.45-18.7,18.411,1.507,8.532.324,17.064-6.565,25.434a.8.8,0,0,1-.624.293.832.832,0,0,1-.518-.187.818.818,0,0,1-.105-1.143c6.4-7.779,7.57-15.8,6.226-23.862-7.027,2.263-14.954,2.977-22.759,3.675-19.5,1.743-37.915,3.39-38.6,29.984a.808.808,0,0,1-.81.787h-.024c-.015,0-.032-.008-.048-.008s-.024.016-.04.016a.5.5,0,0,1-.105.008.806.806,0,0,1-.8-.714c-2.429-19.311-13.837-24.607-27.617-27.073-4.76,13.188-5.886,25.734,9.595,37.495a.812.812,0,0,1,.154,1.135c-.008.008-.024.016-.032.025a.535.535,0,0,1-.016.057.82.82,0,0,1-1.1.324c-23.341-12.7-33.972,2.458-45.227,18.5-4.5,6.423-9.084,12.936-14.557,17.907,6.3,5.2,13.812,8.192,23.738,6.521a.8.8,0,0,1,.932.664.815.815,0,0,1-.664.933,35.167,35.167,0,0,1-5.74.495C899.021,1465.952,892.755,1462.966,887.37,1458.441Z" transform="translate(0 0)" fill="#0c1229"/></g></g></svg>